<?xml version="1.0" standalone="no"?>
<!DOCTYPE svg PUBLIC "-//W3C//DTD SVG 1.1//EN" "http://www.w3.org/Graphics/SVG/1.1/DTD/svg11.dtd" >
<svg xmlns="http://www.w3.org/2000/svg">
<metadata>Generated by IcoMoon</metadata>
<defs>
<font id="sixcloud" horiz-adv-x="1024">
<font-face units-per-em="1024" ascent="960" descent="-64" />
<missing-glyph horiz-adv-x="1024" />
<glyph unicode="&#x20;" horiz-adv-x="512" d="" />
<glyph unicode="&#xe900;" d="M545.325 837.219c19.488 11.511 32.736 32.504 32.736 56.717 0 36.436-29.629 66.064-66.064 66.064s-66.064-29.629-66.064-66.064c0-24.213 13.245-45.206 32.736-56.717-28.952-12.85-49.25-41.753-49.25-75.412v-16.518c0-9.119 7.382-16.518 16.518-16.518h49.55v-115.614h33.025v115.618h49.55c9.133 0 16.518 7.399 16.518 16.518v16.514c-0.004 33.659-20.302 62.562-49.254 75.412zM511.996 926.968c18.216 0 33.032-14.816 33.032-33.032s-14.816-33.032-33.032-33.032-33.032 14.816-33.032 33.032 14.812 33.032 33.032 33.032zM462.446 761.807c0 27.317 22.229 49.55 49.55 49.55s49.55-22.229 49.55-49.55h-99.1z" />
<glyph unicode="&#xe901;" d="M33.029 613.161h132.129c9.133 0 16.518 7.399 16.518 16.518v2.181l172.511-115.019 18.315 27.483-196.392 130.924c-7.829 20.679-23.586 37.426-43.701 46.361 19.506 11.511 32.75 32.504 32.75 56.717 0 36.436-29.629 66.064-66.064 66.064s-66.064-29.629-66.064-66.064c0-24.213 13.245-45.206 32.736-56.717-28.952-12.85-49.25-41.753-49.25-75.412v-16.518c-0.004-9.119 7.382-16.518 16.514-16.518zM99.093 811.354c18.216 0 33.032-14.816 33.032-33.032s-14.816-33.032-33.032-33.032-33.032 14.816-33.032 33.032 14.812 33.032 33.032 33.032zM99.093 695.743c27.317 0 49.55-22.229 49.55-49.55h-99.1c0 27.321 22.233 49.55 49.55 49.55z" />
<glyph unicode="&#xe902;" d="M958.228 721.608c19.488 11.511 32.736 32.504 32.736 56.717 0 36.436-29.629 66.064-66.064 66.064s-66.064-29.629-66.064-66.064c0-24.213 13.245-45.206 32.736-56.717-20.115-8.935-35.872-25.682-43.701-46.361l-196.392-130.924 18.315-27.483 172.528 115.019v-2.181c0-9.119 7.382-16.518 16.518-16.518h132.129c9.133 0 16.518 7.399 16.518 16.518v16.518c-0.007 33.659-20.306 62.562-49.258 75.412zM924.897 811.354c18.216 0 33.032-14.816 33.032-33.032s-14.816-33.032-33.032-33.032-33.032 14.816-33.032 33.032 14.816 33.032 33.032 33.032zM875.35 646.193c0 27.317 22.229 49.55 49.55 49.55 27.317 0 49.55-22.229 49.55-49.55h-99.1z" />
<glyph unicode="&#xe903;" d="M958.228 259.158c19.488 11.493 32.736 32.486 32.736 56.717 0 36.436-29.629 66.064-66.064 66.064s-66.064-29.629-66.064-66.064c0-24.231 13.245-45.22 32.736-56.717-9.133-4.063-17.423-9.661-24.46-16.581l-197.055 136.424-18.812-27.169 197.368-136.639c-4.013-9.696-6.293-20.298-6.293-31.447v-16.518c0-9.133 7.382-16.518 16.518-16.518h132.129c9.133 0 16.518 7.382 16.518 16.518v16.518c-0.007 33.659-20.306 62.562-49.258 75.412zM924.897 348.904c18.216 0 33.032-14.816 33.032-33.032s-14.816-33.032-33.032-33.032-33.032 14.816-33.032 33.032 14.816 33.032 33.032 33.032zM875.35 183.743c0 27.317 22.229 49.55 49.55 49.55 27.317 0 49.55-22.229 49.55-49.55h-99.1z" />
<glyph unicode="&#xe904;" d="M545.325 44.448c19.488 11.493 32.736 32.486 32.736 56.717 0 30.703-21.123 56.336-49.55 63.718v117.957h-33.032v-117.957c-28.423-7.382-49.55-33.015-49.55-63.718 0-24.231 13.245-45.22 32.736-56.717-28.952-12.85-49.25-41.753-49.25-75.412v-16.518c0-9.133 7.382-16.518 16.518-16.518h132.129c9.133 0 16.518 7.382 16.518 16.518v16.518c-0.004 33.659-20.302 62.562-49.254 75.412zM511.996 134.196c18.216 0 33.032-14.816 33.032-33.032s-14.816-33.032-33.032-33.032-33.032 14.816-33.032 33.032 14.812 33.032 33.032 33.032zM462.446-30.964c0 27.317 22.229 49.55 49.55 49.55s49.55-22.229 49.55-49.55h-99.1z" />
<glyph unicode="&#xe905;" d="M353.953 378.997l-197.055-136.424c-7.036 6.92-15.327 12.519-24.46 16.581 19.474 11.497 32.719 32.486 32.719 56.717 0 36.436-29.629 66.064-66.064 66.064s-66.064-29.629-66.064-66.064c0-24.231 13.245-45.22 32.736-56.717-28.952-12.85-49.25-41.753-49.25-75.412v-16.514c0-9.133 7.382-16.518 16.518-16.518h132.129c9.133 0 16.518 7.382 16.518 16.518v16.518c0 11.148-2.28 21.75-6.293 31.447l197.368 136.639-18.801 27.166zM99.093 348.904c18.216 0 33.032-14.816 33.032-33.032s-14.816-33.032-33.032-33.032-33.032 14.816-33.032 33.032 14.812 33.032 33.032 33.032zM49.543 183.743c0 27.317 22.229 49.55 49.55 49.55s49.55-22.229 49.55-49.55h-99.1z" />
<glyph unicode="&#xe906;" d="M511.996 266.325c-100.171 0-181.679 81.507-181.679 181.679s81.507 181.679 181.679 181.679 181.679-81.507 181.679-181.679-81.511-181.679-181.679-181.679z" />
<glyph unicode="&#xe907;" d="M545.325 457.351c19.488 11.511 32.736 32.504 32.736 56.717 0 36.436-29.629 66.064-66.064 66.064s-66.064-29.629-66.064-66.064c0-24.213 13.245-45.206 32.736-56.717-28.952-12.85-49.25-41.753-49.25-75.412v-16.518c0-9.133 7.382-16.518 16.518-16.518h132.129c9.133 0 16.518 7.382 16.518 16.518v16.518c-0.007 33.659-20.306 62.562-49.258 75.412zM511.996 547.096c18.216 0 33.032-14.816 33.032-33.032s-14.816-33.032-33.032-33.032-33.032 14.816-33.032 33.032 14.812 33.032 33.032 33.032zM462.446 381.936c0 27.317 22.229 49.55 49.55 49.55s49.55-22.229 49.55-49.55h-99.1z" />
<glyph unicode="&#xe908;" d="M448 720v-13.728c17.744-10.56 32.128-26.592 40.144-46.608l7.856-19.664c53.024 0 96-42.976 96-96v-48h320v224h-464z" />
<glyph unicode="&#xe909;" d="M304 424c0 22.048-17.936 40-40 40s-40-17.952-40-40 17.936-40 40-40 40 17.952 40 40zM264 416c-4.4 0-8 3.584-8 8s3.6 8 8 8 8-3.584 8-8-3.6-8-8-8z" />
<glyph unicode="&#xe90a;" d="M440 384c22.064 0 40 17.952 40 40s-17.936 40-40 40-40-17.952-40-40 17.936-40 40-40zM440 432c4.4 0 8-3.584 8-8s-3.6-8-8-8-8 3.584-8 8 3.6 8 8 8z" />
<glyph unicode="&#xe90b;" d="M432 320h-32c0-26.464-21.536-48-48-48s-48 21.536-48 48h-32c0-44.112 35.888-80 80-80s80 35.888 80 80z" />
<glyph unicode="&#xe90c;" d="M1008 944h-864v-283.28c-29.952-36.048-48-82.304-48-132.72v-176c0-35.296 28.704-64 64-64h17.68c16.448-35.696 43.488-65.456 77.136-85.312l-66.432-11.072c-64.464-10.736-117.36-55.936-138.032-117.952l-40.56-121.664h684.4l-40.56 121.664c-0.72 2.192-1.792 4.192-2.592 6.336h356.96v864zM976 912v-96h-800v96h800zM304 704h95.008c32.912 0 62.064-19.744 74.288-50.288l11.872-29.712h10.832c44.112 0 80-35.888 80-80v-136.896c-9.456 5.504-20.288 8.896-32 8.896v64c0 26.464-21.536 48-48 48h-288c-26.464 0-48-21.536-48-48v-64c-11.712 0-22.544-3.392-32-8.896v120.896c0 97.040 78.96 176 176 176zM544 368v16c17.648 0 32-14.352 32-32s-14.352-32-32-32h-6.32c3.984 15.376 6.32 31.408 6.32 48zM160 320c-17.648 0-32 14.352-32 32s14.352 32 32 32v-16c0-16.592 2.336-32.624 6.32-48h-6.32zM192 368v112c0 8.816 7.168 16 16 16h288c8.832 0 16-7.184 16-16v-112c0-88.224-71.776-160-160-160s-160 71.776-160 160zM461.216 115.856l-31.536-31.536 16-48-52.304-52.32h-5.584l37.92 176.992c1.696 4.016 3.088 8.176 4.112 12.496l8.944-1.488 22.448-56.144zM242.784 115.856l22.448 56.128 8.944 1.488c1.024-4.304 2.416-8.48 4.112-12.496l37.92-176.976h-5.584l-52.32 52.32 16 48-31.52 31.536zM395.264 171.568c-7.712-16.24-24.128-27.568-43.264-27.568s-35.552 11.328-43.264 27.568l-2.16 10.080c14.592-3.552 29.744-5.648 45.424-5.648s30.832 2.096 45.424 5.648l-2.16-10.080zM320 118.976c9.84-4.336 20.576-6.976 32-6.976s22.16 2.64 32 6.976l-28.928-134.976h-6.144l-28.928 134.976zM80.704 63.552c16.928 50.736 60.208 87.712 112.944 96.512l34.656 5.776-23.072-57.68 32.464-32.464-16-48 43.68-43.68h-101.856l12.176 60.864-31.376 6.256-13.44-67.136h-76.672l26.496 79.552zM573.12-16l-13.424 67.136-31.376-6.288 12.16-60.848h-101.856l43.68 43.68-16 48 32.464 32.464-23.072 57.68 34.656-5.776c52.736-8.784 96.016-45.776 112.944-96.512l26.496-79.536h-76.672zM635.184 112c-26.416 41.824-69.36 71.248-119.568 79.616l-66.432 11.072c33.648 19.856 60.688 49.616 77.136 85.312h17.68c35.296 0 64 28.704 64 64v192c0 58.032-44.352 105.888-100.96 111.456l-4.032 10.144c-17.104 42.768-57.936 70.4-104 70.4h-95.008c-48.288 0-92.656-16.688-128-44.384v92.384h800v-672h-340.816z" />
<glyph unicode="&#xe90d;" d="M208 880h32v-32h-32v32z" />
<glyph unicode="&#xe90e;" d="M272 880h32v-32h-32v32z" />
<glyph unicode="&#xe90f;" d="M336 880h32v-32h-32v32z" />
<glyph unicode="&#xe910;" d="M640 464h32v-32h-32v32z" />
<glyph unicode="&#xe911;" d="M704 464h208v-32h-208v32z" />
<glyph unicode="&#xe912;" d="M640 400h272v-32h-272v32z" />
<glyph unicode="&#xe913;" d="M640 336h272v-32h-272v32z" />
<glyph unicode="&#xe914;" d="M880 208h32v-32h-32v32z" />
<glyph unicode="&#xe915;" d="M640 208h208v-32h-208v32z" />
<glyph unicode="&#xe916;" d="M640 272h272v-32h-272v32z" />
<glyph unicode="&#xe917;" d="M313.806 679.226c0-45.611-36.974-82.581-82.581-82.581s-82.581 36.97-82.581 82.581c0 45.607 36.974 82.581 82.581 82.581s82.581-36.974 82.581-82.581v0z" />
<glyph unicode="&#xe918;" d="M307.869 716.094l-21.158 25.36-87.487-72.913-22.383 22.365-23.36-23.365 43.699-43.695 110.689 92.248z" />
<glyph unicode="&#xe919;" d="M363.355 728.774h247.742v-33.032h-247.742v33.032z" />
<glyph unicode="&#xe91a;" d="M363.355 662.71h280.774v-33.032h-280.774v33.032z" />
<glyph unicode="&#xe91b;" d="M307.869 550.933l-21.158 25.36-87.487-72.913-22.383 22.365-23.36-23.365 43.699-43.695 110.689 92.248z" />
<glyph unicode="&#xe91c;" d="M363.355 563.613h346.839v-33.032h-346.839v33.032z" />
<glyph unicode="&#xe91d;" d="M363.355 497.548h66.065v-33.032h-66.065v33.032z" />
<glyph unicode="&#xe91e;" d="M462.452 497.548h247.742v-33.032h-247.742v33.032z" />
<glyph unicode="&#xe91f;" d="M307.869 385.772l-21.158 25.36-87.487-72.913-22.383 22.365-23.36-23.365 43.699-43.695 110.689 92.248z" />
<glyph unicode="&#xe920;" d="M363.355 398.452h346.839v-33.032h-346.839v33.032z" />
<glyph unicode="&#xe921;" d="M363.355 332.387h247.742v-33.032h-247.742v33.032z" />
<glyph unicode="&#xe922;" d="M644.129 332.387h66.065v-33.032h-66.065v33.032z" />
<glyph unicode="&#xe923;" d="M644.129 728.774h66.065v-33.032h-66.065v33.032z" />
<glyph unicode="&#xe924;" d="M974.452 200.258h-132.129v677.161c0 45.54-37.040 82.581-82.581 82.581h-677.161c-45.54 0-82.581-37.040-82.581-82.581s37.040-82.581 82.581-82.581v-858.839h693.677v99.097h66.065v66.065h132.129c27.32 0 49.548 22.229 49.548 49.548s-22.229 49.548-49.548 49.548v0zM809.29 877.419v-677.161h-33.032v627.613h-16.516c-27.32 0-49.548 22.229-49.548 49.548s22.229 49.548 49.548 49.548c27.32 0 49.548-22.229 49.548-49.548v0zM33.032 877.419c0 27.32 22.229 49.548 49.548 49.548h611.528c-10.495-13.834-16.948-30.883-16.948-49.548s6.452-35.719 16.948-49.548h-611.528c-27.32 0-49.548 22.229-49.548 49.548v0zM115.613-30.968v825.806h627.613v-594.581h-465.134l-148.628-49.548 148.628-49.548h465.134v-132.129h-627.613zM233.908 150.71l30.35 10.117v-20.216l-30.35 10.099zM809.29 68.129h-33.032v33.032h33.032v-33.032zM842.323 134.194h-545.032v33.032h545.032v-33.032zM908.387 134.194h-33.032v33.032h33.032v-33.032zM974.452 134.194h-33.032v33.032h33.032c9.117 0 16.516-7.417 16.516-16.516 0-9.104-7.399-16.516-16.516-16.516v0z" />
<glyph unicode="&#xe925;" d="M358.768 810.99c-19.382 86.375-87.64 147.692-166.768 147.692-95.009 0-172.308-88.34-172.308-196.923 0-108.579 77.299-196.923 172.308-196.923 79.128 0 147.386 61.3 166.75 147.692h284.532v-98.462h98.462v49.231h16.41v-49.231h98.462v98.462h32.821v98.462h-530.668zM265.846 720.734c0-40.785-33.061-73.846-73.846-73.846s-73.846 33.061-73.846 73.846c0 15.181 4.617 29.302 12.481 41.026-7.864 11.728-12.481 25.845-12.481 41.026 0 40.789 33.061 73.846 73.846 73.846s73.846-33.057 73.846-73.846c0-15.181-4.617-29.298-12.481-41.026 7.864-11.723 12.481-25.845 12.481-41.026v0z" />
<glyph unicode="&#xe926;" d="M561.231 564.837c0 54.307-44.155 98.462-98.462 98.462s-98.462-44.155-98.462-98.462c0-54.307 44.155-98.462 98.462-98.462s98.462 44.155 98.462 98.462v0zM462.769 499.196c-36.203 0-65.641 29.438-65.641 65.641 0 36.208 29.438 65.641 65.641 65.641s65.641-29.433 65.641-65.641c0-36.203-29.438-65.641-65.641-65.641v0z" />
<glyph unicode="&#xe927;" d="M282.256 720.734c0 14.375-3.4 28.379-9.881 41.026 6.481 12.651 9.881 26.65 9.881 41.026 0 49.76-40.479 90.256-90.256 90.256s-90.256-40.496-90.256-90.256c0-14.375 3.4-28.374 9.881-41.026-6.481-12.647-9.881-26.65-9.881-41.026 0-49.76 40.479-90.256 90.256-90.256s90.256 40.496 90.256 90.256v0zM239.76 752.614c6.323-9.452 9.675-20.476 9.675-31.88 0-31.674-25.762-57.436-57.436-57.436s-57.436 25.762-57.436 57.436c0 11.404 3.352 22.427 9.693 31.88l6.118 9.146-6.118 9.146c-6.341 9.452-9.693 20.48-9.693 31.88 0 31.674 25.762 57.436 57.436 57.436s57.436-25.762 57.436-57.436c0-11.4-3.352-22.427-9.675-31.88l-6.118-9.146 6.118-9.146z" />
<glyph unicode="&#xe928;" d="M955.077 302.273h-49.231v16.41c0 27.145-22.086 49.231-49.231 49.231h-196.923c-27.145 0-49.231-22.086-49.231-49.231v-16.41h-49.231v50.565l121.077 43.231c15.216 5.418 26.445 18.664 29.333 34.545l22.992 126.482c2.735 15.058-1.899 30.698-12.428 41.844-10.664 11.282-25.657 16.668-41.266 14.734-21.228-2.613-38.444-19.929-41.861-42.102l-14.992-97.451-96.339-32.597c-17.951 15.894-41.096 24.852-64.976 24.852-23.403 0-45.489-8.135-63.23-23.093l-86.204 25.504-10.822 71.728c-3.558 23.605-23.451 40.732-47.336 40.732-14.441 0-27.981-6.428-37.109-17.605-9.111-11.181-12.699-25.709-9.794-39.866l21.727-106.032c3.295-16.17 15.246-28.991 31.162-33.403l103.144-28.716v-150.738l-27.609-207.041c-3.295-24.839 11.693-48.377 34.89-54.753 13.951-3.829 28.668-1.554 40.461 6.275 11.811 7.811 19.657 20.34 21.522 34.357l27.145 203.675h4.087l26.974-202.258c2.976-22.287 19.88-40.102 41.109-43.332 2.547-0.376 5.098-0.565 7.627-0.565 1.453 0 2.871 0.293 4.306 0.411v-0.411h410.256c27.145 0 49.231 22.086 49.231 49.231v262.564c0 27.145-22.086 49.231-49.231 49.231v0zM643.282 318.683c0 9.063 7.369 16.41 16.41 16.41h196.923c9.041 0 16.41-7.347 16.41-16.41v-16.41h-229.744v16.41zM610.462 269.452h344.615c9.041 0 16.41-7.347 16.41-16.41v-69.094l-164.103-48.426v19.058c0 9.076-7.352 16.41-16.41 16.41h-65.641c-9.058 0-16.41-7.334-16.41-16.41v-18.633l-144.633 46.071-3.059 22.869v64.565h49.231zM774.564 138.17v-49.231h-32.821v49.231h32.821zM537.797-25.744c-6.77 1.042-12.428 7.417-13.474 15.216l-30.786 230.75h-61.554l-30.956-232.155c-0.617-4.612-3.199-8.752-7.094-11.317-3.969-2.613-8.805-3.33-13.645-2.013-7.33 2.013-12.205 10.271-11.058 18.8l27.762 208.139 0.153 178.907-127.164 35.402c-4 1.094-7.006 4.306-7.846 8.376l-21.71 106.032c-1.247 6.070 1.387 10.463 3.081 12.529 1.689 2.035 5.453 5.505 11.671 5.505 7.522 0 13.763-5.365 14.892-12.804l13.929-92.374 124.753-36.921 6.905 7.142c12.551 12.958 29.267 20.086 47.113 20.086 18.546 0 35.779-7.759 48.496-21.845l7.212-7.982 135.010 45.691 18.016 117.165c1.164 7.606 6.84 13.723 13.452 14.564 7.010 0.853 11.387-2.599 13.386-4.717 3.435-3.641 4.888-8.546 4-13.439l-22.992-126.477c-0.788-4.376-3.864-7.999-8.069-9.505l-142.87-51.042v-172.155l28.051-211.504c0.665-5.076-1.042-10.034-4.7-13.64-2.136-2.118-6.84-5.369-13.964-4.411v0zM955.077-25.933h-368.36c2.481 7.129 3.317 14.804 2.293 22.581l-19.933 149.386 139.846-44.566v-28.939c0-9.076 7.352-16.41 16.41-16.41h65.641c9.058 0 16.41 7.334 16.41 16.41v28.768l164.103 48.43v-159.25c0-9.058-7.369-16.41-16.41-16.41v0z" />
<glyph unicode="&#xe929;" d="M620.629 303.214l-9.136 19.581h-201.223l-9.136-19.581c-61.695-132.19-14.497-289.64 109.747-366.096 124.244 76.456 171.442 233.906 109.747 366.096v0z" />
<glyph unicode="&#xe92a;" d="M782.479 247.059l-21.066 168.419-83.668 66.936c0.438 2.652 0.823 5.308 0.823 8.067 0 21.835-14.077 40.28-33.537 47.216v32.732c52.644 41.242 83.843 104.734 83.843 171.58 0 120.193-97.799 217.991-217.991 217.991s-217.991-97.799-217.991-217.991c0-66.864 31.198-130.339 83.843-171.58v-32.732c-19.46-6.953-33.537-25.399-33.537-47.216 0-2.759 0.385-5.415 0.823-8.053l-83.668-66.931-21.066-168.437 158.076 59.285c15.722-57.156 52.734-110.516 103.581-147.948l9.94-7.356 9.94 7.338c50.847 37.414 87.876 90.792 103.581 147.948l158.076-59.267zM628.262 423.406c0-9.238-7.512-16.769-16.769-16.769h-201.223c-9.256 0-16.769 7.53-16.769 16.769 0 9.243 7.512 16.769 16.769 16.769h201.223c9.256 0 16.769-7.526 16.769-16.769v0zM393.502 356.332c0 9.243 7.512 16.769 16.769 16.769h201.223c9.256 0 16.769-7.526 16.769-16.769 0-9.238-7.512-16.769-16.769-16.769h-201.223c-9.256 0-16.769 7.53-16.769 16.769v0zM742.342 297.924l-87.72 32.907c4.454 7.512 7.177 16.156 7.177 25.502 0 12.927-5.048 24.612-13.084 33.537 8.053 8.925 13.084 20.614 13.084 33.537 0 8.997-2.567 17.328-6.725 24.665 2.182 1.377 4.176 2.987 6.095 4.682l68.702-54.952 12.471-99.878zM326.428 742.009c0 101.693 82.761 184.454 184.454 184.454 101.711 0 184.454-82.761 184.454-184.454 0-59.003-28.735-114.934-76.872-149.607l-6.971-5.031v-46.603h-33.537v167.703h16.769c27.737 0 50.324 22.568 50.324 50.306s-22.586 50.306-50.324 50.306c-27.72 0-50.306-22.568-50.306-50.306v-16.769h-67.074v16.769c0 27.737-22.568 50.306-50.306 50.306s-50.306-22.568-50.306-50.306c0-27.737 22.568-50.306 50.306-50.306h16.769v-167.686h-33.537v46.603l-6.953 5.013c-48.137 34.673-76.889 90.622-76.889 149.607v0zM477.345 540.786v167.686h67.074v-167.686h-67.074zM577.956 742.009v16.769c0 9.243 7.512 16.769 16.769 16.769s16.769-7.526 16.769-16.769c0-9.238-7.512-16.769-16.769-16.769h-16.769zM443.808 742.009h-16.769c-9.256 0-16.769 7.53-16.769 16.769 0 9.243 7.512 16.769 16.769 16.769s16.769-7.526 16.769-16.769v-16.769zM393.502 507.249h234.76c9.256 0 16.769-7.526 16.769-16.769 0-9.238-7.512-16.786-16.769-16.786h-234.76c-9.256 0-16.769 7.548-16.769 16.786 0 9.243 7.512 16.769 16.769 16.769v0zM291.894 397.802l68.702 54.952c1.918-1.695 3.913-3.287 6.095-4.682-4.159-7.338-6.725-15.669-6.725-24.665 0-12.923 5.048-24.612 13.084-33.537-8.053-8.925-13.084-20.61-13.084-33.537 0-9.346 2.723-17.989 7.195-25.502l-87.72-32.907 12.453 99.878zM510.882 193.082c-37.119 30.255-64.892 70.186-78.741 112.944h157.499c-13.866-42.775-41.622-82.707-78.759-112.944v0z" />
<glyph unicode="&#xe92b;" d="M695.336 188.646h33.537v-184.454h-33.537v184.454z" />
<glyph unicode="&#xe92c;" d="M695.336-29.345h33.537v-33.537h-33.537v33.537z" />
<glyph unicode="&#xe92d;" d="M762.41 205.415h33.537v-150.917h-33.537v150.917z" />
<glyph unicode="&#xe92e;" d="M762.41 20.961h33.537v-50.306h-33.537v50.306z" />
<glyph unicode="&#xe92f;" d="M292.891 188.646h33.537v-217.991h-33.537v217.991z" />
<glyph unicode="&#xe930;" d="M225.817 205.415h33.537v-167.686h-33.537v167.686z" />
<glyph unicode="&#xe931;" d="M225.817 4.192h33.537v-33.537h-33.537v33.537z" />
<glyph unicode="&#xe932;" d="M680.095 960h-528.27c-14.768 0-26.67-11.901-26.67-35.021v-966.224c0-6.303 11.901-18.227 26.67-18.227h729.498c14.677 0 26.578 11.924 26.578 18.227v764.974c0 12.72-1.684 16.794-4.619 19.729l-211.809 211.831c-3.026 3.026-7.122 4.71-11.378 4.71v0z" />
<glyph unicode="&#xe933;" d="M689.516 957.247v-215.745h215.632l-215.632 215.745z" />
<glyph unicode="&#xe934;" d="M343.654 723.388h-109.249c-10.058 0-18.227 8.078-18.227 18.113 0 10.058 8.169 18.227 18.227 18.227h109.249c10.035 0 18.113-8.169 18.113-18.227 0-10.035-8.078-18.113-18.113-18.113v0z" />
<glyph unicode="&#xe935;" d="M398.222 632.366h-163.817c-10.058 0-18.227 8.078-18.227 18.113 0 10.058 8.169 18.227 18.227 18.227h163.817c10.035 0 18.227-8.169 18.227-18.227 0-10.035-8.192-18.113-18.227-18.113v0z" />
<glyph unicode="&#xe936;" d="M471.017 632.366c-4.71 0-9.421 1.934-12.88 5.234-3.3 3.459-5.348 8.169-5.348 12.88 0 4.801 2.048 9.512 5.348 12.993 6.758 6.758 19.115 6.758 25.873 0 3.186-3.482 5.234-8.192 5.234-12.993 0-4.71-2.048-9.421-5.234-12.88-3.482-3.3-8.283-5.234-12.993-5.234v0z" />
<glyph unicode="&#xe937;" d="M689.516 632.366h-145.704c-10.035 0-18.113 8.078-18.113 18.113 0 10.058 8.078 18.227 18.113 18.227h145.704c10.035 0 18.227-8.169 18.227-18.227 0-10.035-8.192-18.113-18.227-18.113v0z" />
<glyph unicode="&#xe938;" d="M234.405 359.299c-4.71 0-9.512 1.934-12.993 5.234-3.186 3.459-5.234 8.169-5.234 12.88 0 4.801 2.048 9.512 5.234 12.993 6.758 6.758 19.115 6.758 25.873 0 3.3-3.482 5.348-8.010 5.348-12.993 0-4.71-2.048-9.421-5.348-12.88-3.459-3.3-8.169-5.234-12.88-5.234v0z" />
<glyph unicode="&#xe939;" d="M452.79 359.299h-145.59c-10.035 0-18.227 8.078-18.227 18.113 0 10.058 8.192 18.227 18.227 18.227h145.59c10.058 0 18.227-8.169 18.227-18.227 0-10.035-8.169-18.113-18.227-18.113v0z" />
<glyph unicode="&#xe93a;" d="M798.766 632.366h-36.454c-10.035 0-18.227 8.078-18.227 18.113 0 10.058 8.192 18.227 18.227 18.227h36.454c10.035 0 18.113-8.169 18.113-18.227 0-10.035-8.078-18.113-18.113-18.113v0z" />
<glyph unicode="&#xe93b;" d="M634.834 541.343h-400.43c-10.058 0-18.227 8.078-18.227 18.113 0 10.058 8.169 18.227 18.227 18.227h400.43c10.058 0 18.227-8.169 18.227-18.227 0-10.035-8.169-18.113-18.227-18.113v0z" />
<glyph unicode="&#xe93c;" d="M798.766 541.343h-109.249c-10.058 0-18.227 8.078-18.227 18.113 0 10.058 8.169 18.227 18.227 18.227h109.249c10.035 0 18.113-8.169 18.113-18.227 0-10.035-8.078-18.113-18.113-18.113v0z" />
<glyph unicode="&#xe93d;" d="M307.2 450.321h-72.795c-10.058 0-18.227 8.078-18.227 18.113 0 10.058 8.169 18.227 18.227 18.227h72.795c10.035 0 18.227-8.169 18.227-18.227 0-10.035-8.192-18.113-18.227-18.113v0z" />
<glyph unicode="&#xe93e;" d="M562.039 450.321h-182.044c-10.035 0-18.227 8.078-18.227 18.113 0 10.058 8.192 18.227 18.227 18.227h182.044c10.058 0 18.227-8.169 18.227-18.227 0-10.035-8.169-18.113-18.227-18.113v0z" />
<glyph unicode="&#xe93f;" d="M798.766 450.321h-163.931c-10.035 0-18.113 8.078-18.113 18.113 0 10.058 8.078 18.227 18.113 18.227h163.931c10.035 0 18.113-8.169 18.113-18.227 0-10.035-8.078-18.113-18.113-18.113v0z" />
<glyph unicode="&#xe940;" d="M881.323-59.472h-729.498c-14.768 0-26.67 11.924-26.67 26.67v282.852h782.746v-282.852c0-14.746-11.901-26.67-26.578-26.67v0z" />
<glyph unicode="&#xe941;" d="M434.677 91.989c0-15.11-1.707-27.989-4.892-38.753-3.3-10.65-7.396-19.638-12.356-26.829-4.983-7.214-10.581-12.902-16.816-17.067-6.212-4.187-12.174-7.305-18.045-9.353-5.757-2.025-11.105-3.368-15.906-3.982-4.801-0.546-8.351-0.796-10.65-0.796h-69.427v183.364h55.205c15.451 0 28.968-2.389 40.71-7.282 11.628-4.892 21.413-11.469 29.15-19.57 7.646-8.078 13.426-17.408 17.249-27.716 3.823-10.399 5.78-21.072 5.78-32.017v0zM346.044 17.055c20.275 0 34.839 6.508 43.827 19.388 8.875 12.971 13.426 31.744 13.426 56.274 0 7.646-0.978 15.201-2.753 22.665-1.866 7.464-5.348 14.222-10.581 20.252-5.257 6.053-12.356 10.945-21.254 14.677-8.966 3.732-20.617 5.598-34.839 5.598h-17.431v-138.854h29.605z" />
<glyph unicode="&#xe942;" d="M616.175 87.734c0-15.383-1.866-28.968-5.78-40.801-3.914-11.742-9.33-21.595-16.179-29.332-6.918-7.828-14.928-13.699-24.166-17.681-9.239-4.005-19.297-5.962-30.219-5.962-10.945 0-21.072 1.957-30.219 5.962-9.262 3.982-17.249 9.853-24.189 17.681-6.849 7.828-12.265 17.59-16.179 29.332-3.914 11.833-5.871 25.418-5.871 40.801 0 15.474 1.957 28.968 5.871 40.71s9.33 21.413 16.179 29.241c6.94 7.828 14.928 13.699 24.189 17.772 9.148 4.096 19.274 6.144 30.219 6.144 10.923 0 20.981-2.048 30.219-6.144 9.239-4.073 17.249-9.944 24.166-17.772 6.849-7.828 12.265-17.59 16.179-29.241 3.823-11.742 5.78-25.236 5.78-40.71v0zM539.034 18.307c6.121 0 11.992 1.161 17.59 3.55 5.507 2.412 10.49 6.417 14.928 11.833 4.369 5.507 7.828 12.72 10.308 21.595 2.503 8.897 3.823 19.638 4.005 32.449-0.182 12.447-1.502 23.029-3.914 31.721-2.389 8.715-5.689 15.929-9.944 21.527-4.187 5.689-9.079 9.694-14.404 12.174-5.416 2.571-11.105 3.732-17.067 3.732-6.144 0-11.992-1.070-17.613-3.459-5.507-2.321-10.468-6.235-14.837-11.833-4.437-5.507-7.919-12.698-10.399-21.504-2.389-8.806-3.823-19.57-3.914-32.358 0.091-12.447 1.434-23.029 3.823-31.812 2.412-8.806 5.689-16.020 9.967-21.527 4.255-5.598 9.057-9.694 14.404-12.265 5.416-2.571 11.105-3.823 17.067-3.823v0z" />
<glyph unicode="&#xe943;" d="M782.495 13.87c-6.849-6.667-14.586-11.651-23.211-14.928-8.624-3.391-17.863-4.983-27.807-4.983-10.945 0-21.072 1.957-30.242 5.962-9.239 3.982-17.226 9.853-24.166 17.681-6.849 7.828-12.265 17.59-16.179 29.332-3.914 11.833-5.871 25.418-5.871 40.801 0 15.474 1.957 28.968 5.871 40.71s9.33 21.413 16.179 29.241c6.94 7.828 14.928 13.699 24.257 17.772 9.33 4.096 19.388 6.144 30.151 6.144 9.944 0 19.183-1.684 27.807-4.983 8.624-3.368 16.361-8.351 23.211-14.928l-20.708-18.409c-4.096 4.801-8.715 8.283-13.79 10.399-5.074 2.139-10.308 3.3-15.815 3.3-6.144 0-12.015-1.161-17.522-3.459-5.598-2.412-10.581-6.326-14.928-11.833-4.437-5.598-7.919-12.789-10.308-21.595-2.48-8.806-3.823-19.57-4.005-32.358 0.182-12.447 1.434-23.029 3.823-31.812 2.412-8.806 5.689-16.020 9.967-21.527 4.255-5.598 9.057-9.603 14.473-12.174 5.348-2.662 11.036-3.914 16.976-3.914 6.053 0 11.651 1.070 16.816 3.3 5.234 2.116 10.035 5.598 14.313 10.399l20.708-18.136z" />
<glyph unicode="&#xe944;" glyph-name="down-arrow" d="M512.213 960c-283.078 0-512.213-229.135-512.213-512.124 0-282.732 229.135-511.866 512.213-511.866 282.732 0 511.787 229.144 511.787 511.866 0 282.989-229.055 512.124-511.787 512.124v0zM512.213 4.353c-244.574 0-443.523 198.949-443.523 443.523 0 244.485 198.949 443.444 443.523 443.444 244.495 0 443.186-198.949 443.186-443.444-0.010-244.574-198.701-443.523-443.186-443.523v0zM707.815 560.042l-198.355-198.266-198.266 198.266c-13.379 13.379-35.157 13.379-48.626 0-13.379-13.379-13.379-35.157 0-48.536l222.796-222.45c6.685-6.685 15.439-10.032 24.095-10.032 9.091 0 17.757 3.347 24.531 10.032l222.361 222.45c13.469 13.379 13.469 35.157 0 48.536-13.37 13.379-35.157 13.379-48.536 0v0z" />
<glyph unicode="&#xe945;" glyph-name="download" d="M917.334-64h-853.334c-35.286 0-64 28.714-64 64v213.334c0 11.776 9.558 21.334 21.334 21.334s21.334-9.558 21.334-21.334v-213.334c0-11.734 9.558-21.334 21.334-21.334h853.334c11.776 0 21.334 9.6 21.334 21.334v213.334c0 11.776 9.558 21.334 21.334 21.334s21.334-9.558 21.334-21.334v-213.334c-0.004-35.286-28.72-64-64.004-64zM490.666 106.666c-11.776 0-21.334 9.558-21.334 21.334v810.666c0 11.776 9.558 21.334 21.334 21.334s21.334-9.558 21.334-21.334v-810.666c0-11.776-9.558-21.334-21.334-21.334zM490.666 106.666c-5.462 0-10.922 2.090-15.104 6.23l-256 256c-8.32 8.32-8.32 21.846 0 30.166s21.846 8.32 30.166 0l240.896-240.896 240.896 240.896c8.32 8.32 21.846 8.32 30.166 0s8.32-21.846 0-30.166l-256-256c-4.096-4.138-9.558-6.23-15.020-6.23z" />
<glyph unicode="&#xe946;" d="M980.592 234.416c-17.424 15.712-40.592 23.36-64.128 21.008l-277.040-28.16c1.008 8.88 0.464 18.064-2.208 27.152-10.608 36.096-48.688 56.96-84.768 46.544l-24.448-7.040v97.2l85.248 56.832c76.96 2.784 138.752 66.096 138.752 143.728v16h-16c-76.416 0-138.928-59.872-143.552-135.136l-64.448-42.96v242.096h-32v-162.112l-64.448 42.96c-4.624 75.296-67.136 135.152-143.552 135.152h-16v-16c0-77.632 61.792-140.944 138.752-143.728l85.248-56.832v-186.432l-210.272-60.688h-125.728v32h-144v-288h144v13.728l221.888-29.584 229.312-0.144 345.664 144.032c31.056 12.96 51.136 43.056 51.136 76.72 0 23.472-9.984 45.952-27.408 61.664zM718.656 574.336c-7.472-47.904-45.408-85.84-93.312-93.312 7.472 47.92 45.408 85.856 93.312 93.312zM305.344 654.336c47.904-7.472 85.84-45.408 93.312-93.312-47.904 7.472-85.84 45.408-93.312 93.312zM128 0h-80v224h80v-224zM944.544 125.568l-339.744-141.568h-219.744l-225.056 30v178h128l273.328 78.24c19.296 5.584 39.536-5.584 45.184-24.816 5.088-17.36-3.072-35.584-19.456-43.312l-193.904-91.648 13.68-28.944 193.904 91.648c10.288 4.864 18.672 12.080 25.136 20.56l293.824 29.856c14.528 1.52 28.56-3.104 39.424-12.912 10.896-9.808 16.88-23.28 16.88-37.92 0-20.704-12.336-39.216-31.456-47.184z" />
<glyph unicode="&#xe947;" d="M512 655.68c-79.408 0-144 64.592-144 144s64.592 144 144 144 144-64.592 144-144-64.592-144-144-144z" />
<glyph unicode="&#xe948;" d="M896 783.68v-32h32v-32h32v32h32v32h-32v32h-32v-32z" />
<glyph unicode="&#xe949;" d="M816 799.68h32v48h48v32h-48v48h-32v-48h-48v-32h48z" />
<glyph unicode="&#xe94a;" d="M864 623.68v32h32v32h-32v32h-32v-32h-32v-32h32v-32z" />
<glyph unicode="&#xe94b;" d="M192 751.68h32v32h32v32h-32v32h-32v-32h-32v-32h32z" />
<glyph unicode="&#xe94c;" d="M80 623.68h32v48h48v32h-48v48h-32v-48h-48v-32h48z" />
<glyph unicode="&#xe94d;" d="M534.016 798.682h25.062v-14.936h-33.062v-13.506h33.062v-14.942h-33.062v-33.696h-30.096v33.696h-32.654v14.942h32.654v13.506h-32.654v14.936h25.062l-34.328 59.8h34.328l14.718-33.696c3.796-8.422 6.106-15.598 8.858-22.942h0.408c2.726 6.93 5.478 14.936 9.048 23.16l14.964 33.478h33.676l-35.984-59.8z" />
<glyph unicode="&#xe94e;" d="M66.064 761.808h528.52v-363.352h-528.52v363.352z" />
<glyph unicode="&#xe94f;" d="M0 960v-1024h1024v1024h-1024zM990.959 926.959v-99.087h-957.919v99.087h957.919zM33.041-30.959v825.808h957.919v-825.808h-957.919z" />
<glyph unicode="&#xe950;" d="M99.105 877.427c0-9.131-7.401-16.531-16.527-16.531-9.113 0-16.514 7.401-16.514 16.531 0 9.109 7.401 16.509 16.514 16.509 9.126 0 16.527-7.401 16.527-16.509v0z" />
<glyph unicode="&#xe951;" d="M148.642 877.427c0-9.131-7.401-16.531-16.509-16.531-9.131 0-16.514 7.401-16.514 16.531 0 9.109 7.383 16.509 16.514 16.509 9.109 0 16.509-7.401 16.509-16.509v0z" />
<glyph unicode="&#xe952;" d="M198.196 877.427c0-9.131-7.401-16.531-16.514-16.531-9.126 0-16.527 7.401-16.527 16.531 0 9.109 7.401 16.509 16.527 16.509 9.113 0 16.514-7.401 16.514-16.509v0z" />
<glyph unicode="&#xe953;" d="M264.26 674.674v-189.066l165.424 94.513-165.424 94.552zM297.283 617.719l65.795-37.597-65.795-37.58v75.177z" />
<glyph unicode="&#xe954;" d="M627.612 761.808h330.324v-33.023h-330.324v33.023z" />
<glyph unicode="&#xe955;" d="M627.612 679.23h330.324v-33.023h-330.324v33.023z" />
<glyph unicode="&#xe956;" d="M627.612 596.653h330.324v-33.041h-330.324v33.041z" />
<glyph unicode="&#xe957;" d="M627.612 514.075h330.324v-33.041h-330.324v33.041z" />
<glyph unicode="&#xe958;" d="M627.612 431.48h330.324v-33.023h-330.324v33.023z" />
<glyph unicode="&#xe959;" d="M66.064 348.902h891.872v-33.023h-891.872v33.023z" />
<glyph unicode="&#xe95a;" d="M330.324 266.324h-264.26v-181.682h264.26v181.682zM297.283 117.682h-198.196v115.601h198.196v-115.601z" />
<glyph unicode="&#xe95b;" d="M66.064 35.105h891.872v-33.041h-891.872v33.041z" />
<glyph unicode="&#xe95c;" d="M379.879 266.324v-181.682h264.243v181.682h-264.243zM611.098 117.682h-198.196v115.601h198.196v-115.601z" />
<glyph unicode="&#xe95d;" d="M693.676 84.642h264.26v181.682h-264.26v-181.682zM726.717 233.283h198.179v-115.601h-198.179v115.601z" />
<glyph unicode="&#xe95e;" glyph-name="graphic-design" d="M148.642 646.207c0-9.131-7.383-16.531-16.509-16.531-9.131 0-16.514 7.401-16.514 16.531 0 9.109 7.383 16.509 16.514 16.509 9.126 0 16.509-7.401 16.509-16.509v0zM214.706 646.207c0-9.131-7.383-16.531-16.509-16.531-9.131 0-16.514 7.401-16.514 16.531 0 9.109 7.383 16.509 16.514 16.509 9.126 0 16.509-7.401 16.509-16.509v0zM280.774 646.207c0-9.131-7.383-16.531-16.514-16.531-9.126 0-16.509 7.401-16.509 16.531 0 9.109 7.383 16.509 16.509 16.509 9.131 0 16.514-7.401 16.514-16.509v0zM115.618 51.618h212.573l-212.573 200.073v-200.073zM148.642 175.249l96.261-90.59h-96.261v90.59zM1024 860.913v99.087h-99.087v-33.041h-330.324v33.041h-99.092v-99.087h99.092v33.023h55.832c-53.495-35.529-88.877-96.261-88.877-165.156h-462.439c-27.313 0-49.55-22.237-49.55-49.55v-206.884c-15.057 12.686-27.673 9.603-32.516 7.5-5.133-2.215-17.038-9.737-17.038-31.835v-462.456c0-27.318 22.237-49.554 49.554-49.554h495.48c21.608 0 29.078 10.704 31.619 17.086 2.541 6.386 4.435 19.293-11.329 34.094l-15.803 14.884h424.929c27.313 0 49.55 22.237 49.55 49.554v627.612c0 27.313-22.237 49.55-49.55 49.55h-16.514c0 68.895-35.377 129.626-88.877 165.156h55.837v-33.023h99.105zM957.936 926.977h33.023v-33.041h-33.023v33.041zM561.544 893.936h-33.023v33.041h33.023v-33.041zM82.578 679.23c0 9.091 7.418 16.509 16.527 16.509h465.27c0.017-0.117 0.204-0.152 0.303-0.234 6.282-37.177 22.982-71.232 47.877-98.853h-529.977v82.578zM49.554-30.959c-9.096 0-16.514 7.401-16.514 16.514v16.509h33.023v33.041h-33.023v33.028h33.023v33.041h-33.023v33.023h33.023v33.041h-33.023v33.023h33.023v33.041h-33.023v33.023h33.023v33.045h-33.023v33.023h33.023v33.041h-33.023v77.375l503.388-473.768h-486.874zM148.642 379.372v118.172h363.369v-231.22h-243.263l-120.106 113.047zM990.959 51.601c0-9.096-7.401-16.496-16.509-16.496h-460.020l-210.574 198.196h241.178v297.288h-429.416v-120.123l-33.041 31.072v122.074h568.589c3.187-2.068 6.148-4.405 9.469-6.317v-18.647c-9.941-7.552-16.514-19.393-16.514-32.82 0-9.334 3.217-17.853 8.485-24.777-5.268-6.928-8.485-15.465-8.485-24.795 0-22.761 18.53-41.287 41.291-41.287h148.642c22.761 0 41.304 18.525 41.304 41.287 0 9.33-3.234 17.866-8.485 24.777 5.25 6.928 8.485 15.443 8.485 24.777 0 13.427-6.551 25.267-16.527 32.82v18.647c3.317 1.912 6.299 4.249 9.482 6.317h122.646v-511.993zM685.43 464.52h148.642c4.557 0 8.246-3.689 8.246-8.263 0-4.557-3.689-8.246-8.246-8.246h-148.642c-4.574 0-8.268 3.689-8.268 8.246s3.694 8.263 8.268 8.263v0zM677.162 505.811c0 4.552 3.694 8.263 8.268 8.263h148.642c4.557 0 8.246-3.711 8.246-8.263 0-4.557-3.689-8.25-8.246-8.25h-148.642c-4.574-0.017-8.268 3.694-8.268 8.25v0zM955.109 695.74h19.341c9.109 0 16.509-7.418 16.509-16.509v-82.578h-84.030c24.37 27.027 40.827 60.254 47.417 96.547 0.303 0.763 0.611 1.561 0.763 2.541v0zM924.913 728.78c0-62.218-34.532-118.528-90.113-146.981l-8.992-4.604v-30.097h-49.554v117.955c28.419 7.383 49.554 33.041 49.554 63.727 0 36.431-29.62 66.068-66.068 66.068-36.427 0-66.064-29.637-66.064-66.068 0-30.686 21.135-56.344 49.554-63.727v-117.955h-49.554v30.097l-8.974 4.604c-55.602 28.454-90.113 84.763-90.113 146.981 0 91.062 74.089 165.156 165.151 165.156 91.080 0 165.173-74.093 165.173-165.156v0zM759.74 695.74c-18.205 0-33.023 14.819-33.023 33.041 0 18.209 14.801 33.028 33.023 33.028s33.041-14.801 33.041-33.028c0-18.222-14.819-33.041-33.041-33.041v0zM578.075 365.416h379.861v-33.023h-379.861v33.023zM578.075 299.369h379.861v-33.041h-379.861v33.041zM578.075 233.301h379.861v-33.041h-379.861v33.041zM578.075 167.237h379.861v-33.041h-379.861v33.041z" />
<glyph unicode="&#xe95f;" d="M875.355 613.161h-264.258v-33.032h264.258c18.217 0 33.032-14.815 33.032-33.032v-429.419c0-18.217-14.815-33.032-33.032-33.032h-726.71c-18.217 0-33.032 14.815-33.032 33.032v429.419c0 18.217 14.815 33.032 33.032 33.032h264.258v33.032h-264.258c-36.435 0-66.065-29.63-66.065-66.065v-429.419c0-36.435 29.63-66.065 66.065-66.065h214.71v-82.581h-66.065v-33.032h429.419v33.032h-66.065v82.581h214.71c36.435 0 66.065 29.63 66.065 66.065v429.419c0 36.435-29.63 66.065-66.065 66.065zM627.613-30.968h-231.226v82.581h231.226v-82.581z" />
<glyph unicode="&#xe960;" d="M148.645 117.677h726.71v429.419h-280.774v-33.032h247.742v-363.355h-660.645v363.355h247.742v33.032h-280.774z" />
<glyph unicode="&#xe961;" d="M512 827.871l-115.613-148.645 33.032-198.194h165.161l33.032 198.194-115.613 148.645zM512 629.677c-18.25 0-33.032 14.782-33.032 33.032s14.782 33.032 33.032 33.032 33.032-14.782 33.032-33.032-14.782-33.032-33.032-33.032z" />
<glyph unicode="&#xe962;" d="M247.742 860.903c21.504 0 39.672 13.857 46.509 33.032h99.262c-58.401-35.047-99.989-95.001-110.097-165.161h-35.675v-99.097h99.097v99.097h-30.043c15.789 93.58 97.197 165.161 195.204 165.161s179.415-71.581 195.204-165.161h-30.043v-99.097h99.097v99.097h-35.675c-10.108 70.161-51.712 130.114-110.097 165.161h82.746c6.838-19.175 25.005-33.032 46.509-33.032 27.318 0 49.548 22.231 49.548 49.548s-22.231 49.548-49.548 49.548c-21.504 0-39.672-13.857-46.509-33.032h-418.981c-6.838 19.175-25.005 33.032-46.509 33.032-27.318 0-49.548-22.231-49.548-49.548s22.231-49.548 49.548-49.548zM313.806 662.71h-33.032v33.032h33.032v-33.032zM743.226 662.71h-33.032v33.032h33.032v-33.032zM759.742 926.968c9.117 0 16.516-7.399 16.516-16.516s-7.399-16.516-16.516-16.516-16.516 7.399-16.516 16.516 7.399 16.516 16.516 16.516zM247.742 926.968c9.117 0 16.516-7.399 16.516-16.516s-7.399-16.516-16.516-16.516-16.516 7.399-16.516 16.516 7.399 16.516 16.516 16.516z" />
<glyph unicode="&#xe963;" d="M644.129 332.387h33.032v-33.032h-33.032v33.032z" />
<glyph unicode="&#xe964;" d="M710.194 332.387h33.032v-33.032h-33.032v33.032z" />
<glyph unicode="&#xe965;" d="M495.484 827.871v-118.652c-19.175-6.838-33.032-25.005-33.032-46.509 0-27.318 22.231-49.548 49.548-49.548s49.548 22.231 49.548 49.548c0 21.504-13.857 39.672-33.032 46.509v118.652h-33.032zM512 646.194c-9.117 0-16.516 7.399-16.516 16.516s7.399 16.516 16.516 16.516c9.117 0 16.516-7.399 16.516-16.516s-7.399-16.516-16.516-16.516z" />
<glyph unicode="&#xe966;" d="M379.871 448c0-21.504 13.857-39.672 33.032-46.509v-118.652c0-18.217 14.815-33.032 33.032-33.032h132.129c18.217 0 33.032 14.815 33.032 33.032v118.652c19.175 6.838 33.032 25.005 33.032 46.509 0 27.318-22.231 49.548-49.548 49.548h-165.161c-27.318 0-49.548-22.231-49.548-49.548zM445.935 282.839v115.613h132.129l0.033-115.613h-132.162zM611.097 448c0-9.117-7.399-16.516-16.516-16.516h-165.161c-9.117 0-16.516 7.399-16.516 16.516s7.399 16.516 16.516 16.516h165.161c9.117 0 16.516-7.399 16.516-16.516z" />
<glyph unicode="&#xe967;" d="M776.258 332.387h33.032v-33.032h-33.032v33.032z" />
<glyph unicode="&#xe968;" d="M214.71 332.387h33.032v-33.032h-33.032v33.032z" />
<glyph unicode="&#xe969;" d="M280.774 332.387h33.032v-33.032h-33.032v33.032z" />
<glyph unicode="&#xe96a;" d="M346.839 332.387h33.032v-33.032h-33.032v33.032z" />
<glyph unicode="&#xe96b;" glyph-name="music-folder" d="M921.6 38.8h-819.2c-56.32 0-102.4 46.080-102.4 102.4v614.4c0 56.32 46.080 102.4 102.4 102.4h273.066c5.12 0 8.534-1.706 11.946-5.12l131.414-131.414h402.774c56.32 0 102.4-46.080 102.4-102.4v-477.866c0-56.32-46.080-102.4-102.4-102.4zM102.4 823.866c-37.546 0-68.266-30.72-68.266-68.266v-614.4c0-37.546 30.72-68.266 68.266-68.266h819.2c37.546 0 68.266 30.72 68.266 68.266v477.866c0 37.546-30.72 68.266-68.266 68.266h-409.6c-5.12 0-8.534 1.706-11.946 5.12l-131.414 131.414h-266.24zM443.734 277.734c-3.414 0-5.12 0-8.534 1.706-5.12 3.414-8.534 8.534-8.534 15.36v204.8c0 6.826 3.414 11.946 8.534 15.36s11.946 3.414 17.066 0l170.666-102.4c5.12-3.414 8.534-8.534 8.534-15.36s-3.414-11.946-8.534-15.36l-170.666-102.4c-1.706-1.706-5.12-1.706-8.532-1.706zM460.8 468.88v-145.066l121.174 71.68-121.174 73.386z" />
<glyph unicode="&#xe96c;" d="M592 480v128h-76.064c-0.88 2.224-1.792 4.432-2.784 6.656l53.792 53.792-90.496 90.496-53.792-53.792c-2.224 0.992-4.432 1.904-6.656 2.784v76.064h-128v-76.064c-2.224-0.88-4.432-1.792-6.656-2.784l-53.792 53.792-90.496-90.496 53.792-53.792c-0.992-2.224-1.904-4.432-2.784-6.656h-76.064v-128h76.064c0.88-2.224 1.792-4.432 2.784-6.656l-53.792-53.792 90.496-90.496 53.792 53.792c2.224-0.992 4.432-1.904 6.656-2.784v-76.064h128v76.064c2.224 0.88 4.432 1.792 6.656 2.784l53.792-53.792 90.496 90.496-53.792 53.792c0.992 2.224 1.904 4.432 2.784 6.656h76.064zM352 464c-44.176 0-80 35.824-80 80s35.824 80 80 80 80-35.824 80-80-35.824-80-80-80z" />
<glyph unicode="&#xe96d;" d="M352 448c52.944 0 96 43.056 96 96s-43.056 96-96 96-96-43.056-96-96 43.056-96 96-96zM352 608c35.296 0 64-28.704 64-64s-28.704-64-64-64-64 28.704-64 64 28.704 64 64 64z" />
<glyph unicode="&#xe96e;" d="M1008 774.624l-169.376 169.376h-502.624v-160h32v128h448v-160h160v-480h-608v32h-32v-64h384v-64h-672v272c0 26.464 21.536 48 48 48h16v32h-16c-44.112 0-80-35.888-80-80v-320c0-44.112 35.888-80 80-80h112v-64h-64v-32h480v32h-64v64h112c44.112 0 80 35.888 80 80v112h256v534.624zM528-16h-288v64h288v-64zM672 80h-576c-26.464 0-48 21.536-48 48v16h672v-16c0-26.464-21.536-48-48-48zM848 889.376l105.376-105.376h-105.376v105.376z" />
<glyph unicode="&#xe96f;" d="M912 592h-288v-288h288v288zM880 336h-224v224h224v-224z" />
<glyph unicode="&#xe970;" d="M880 656h32v-32h-32v32z" />
<glyph unicode="&#xe971;" d="M592 656h256v-32h-256v32z" />
<glyph unicode="&#xe972;" d="M656 720h256v-32h-256v32z" />
<glyph unicode="&#xe973;" d="M592 720h32v-32h-32v32z" />
<glyph unicode="&#xe974;" d="M432 880h32v-32h-32v32z" />
<glyph unicode="&#xe975;" d="M496 880h288v-32h-288v32z" />
<glyph unicode="&#xe976;" d="M432 816h288v-32h-288v32z" />
<glyph unicode="&#xe977;" d="M752 816h32v-32h-32v32z" />
<glyph unicode="&#xe978;" d="M66.065 893.935h165.161v-165.161h-165.161v165.161z" />
<glyph unicode="&#xe979;" d="M792.774 893.935h165.161v-165.161h-165.161v165.161z" />
<glyph unicode="&#xe97a;" d="M66.065 167.226h165.161v-165.161h-165.161v165.161z" />
<glyph unicode="&#xe97b;" d="M0 960v-1024h1024v1024h-1024zM990.968-30.968h-957.935v957.935h957.935v-957.935z" />
<glyph unicode="&#xe97c;" d="M132.129 827.871h33.032v-33.032h-33.032v33.032z" />
<glyph unicode="&#xe97d;" d="M858.839 827.871h33.032v-33.032h-33.032v33.032z" />
<glyph unicode="&#xe97e;" d="M132.129 101.161h33.032v-33.032h-33.032v33.032z" />
<glyph unicode="&#xe97f;" d="M132.129 596.645h66.065v33.032h-66.065v33.032h165.161v-66.065h33.032v66.065h231.226v-66.065h33.032v66.065h99.097v33.032h-627.613v-33.032h33.032v-99.097h33.032v33.032z" />
<glyph unicode="&#xe980;" d="M66.065 563.613h33.032v-363.355h-33.032v363.355z" />
<glyph unicode="&#xe981;" d="M132.129 233.29h33.032v-33.032h-33.032v33.032z" />
<glyph unicode="&#xe982;" d="M198.194 200.258h165.161v-66.065h33.032v66.065h132.129v33.032h-99.097v66.065h-33.032v-66.065h-198.194v-33.032z" />
<glyph unicode="&#xe983;" d="M132.129 266.323h33.032v165.161h66.065v33.032h-66.065v66.065h-33.032v-264.258z" />
<glyph unicode="&#xe984;" d="M165.161 563.613h33.032v-33.032h-33.032v33.032z" />
<glyph unicode="&#xe985;" d="M198.194 596.645h33.032v-33.032h-33.032v33.032z" />
<glyph unicode="&#xe986;" d="M231.226 629.677h33.032v-33.032h-33.032v33.032z" />
<glyph unicode="&#xe987;" d="M297.29 827.871h99.097v33.032h-99.097v33.032h-33.032v-165.161h33.032v99.097z" />
<glyph unicode="&#xe988;" d="M330.323 794.839h33.032v-33.032h-33.032v33.032z" />
<glyph unicode="&#xe989;" d="M363.355 761.806h33.032v-33.032h-33.032v33.032z" />
<glyph unicode="&#xe98a;" d="M396.387 827.871h33.032v-33.032h-33.032v33.032z" />
<glyph unicode="&#xe98b;" d="M429.419 860.903h33.032v-33.032h-33.032v33.032z" />
<glyph unicode="&#xe98c;" d="M462.452 893.935h33.032v-33.032h-33.032v33.032z" />
<glyph unicode="&#xe98d;" d="M660.645 893.935h99.097v-33.032h-99.097v33.032z" />
<glyph unicode="&#xe98e;" d="M726.71 827.871h33.032v-99.097h-33.032v99.097z" />
<glyph unicode="&#xe98f;" d="M627.613 827.871h66.065v-33.032h-66.065v33.032z" />
<glyph unicode="&#xe990;" d="M660.645 761.806h33.032v-33.032h-33.032v33.032z" />
<glyph unicode="&#xe991;" d="M594.581 761.806h33.032v-33.032h-33.032v33.032z" />
<glyph unicode="&#xe992;" d="M594.581 761.806v33.032h-66.065v33.032h-33.032v-33.032h-66.065v-33.032h165.161z" />
<glyph unicode="&#xe993;" d="M561.548 827.871h33.032v33.032h33.032v33.032h-99.097v-33.032h33.032v-33.032z" />
<glyph unicode="&#xe994;" d="M264.258 563.613h66.065v-33.032h-66.065v33.032z" />
<glyph unicode="&#xe995;" d="M363.355 596.645h66.065v-33.032h-66.065v33.032z" />
<glyph unicode="&#xe996;" d="M429.419 629.677h99.097v-33.032h-99.097v33.032z" />
<glyph unicode="&#xe997;" d="M627.613 629.677h165.161v-33.032h-165.161v33.032z" />
<glyph unicode="&#xe998;" d="M759.742 695.742h33.032v-33.032h-33.032v33.032z" />
<glyph unicode="&#xe999;" d="M825.806 695.742h132.129v-33.032h-132.129v33.032z" />
<glyph unicode="&#xe99a;" d="M924.903 629.677h33.032v-99.097h-33.032v99.097z" />
<glyph unicode="&#xe99b;" d="M891.871 530.581h33.032v-66.065h-33.032v66.065z" />
<glyph unicode="&#xe99c;" d="M924.903 464.516h33.032v-99.097h-33.032v99.097z" />
<glyph unicode="&#xe99d;" d="M924.903 332.387h33.032v-66.065h-33.032v66.065z" />
<glyph unicode="&#xe99e;" d="M825.806 332.387h66.065v66.065h-33.032v-33.032h-33.032v-33.032z" />
<glyph unicode="&#xe99f;" d="M858.839 299.355h33.032v-66.065h-33.032v66.065z" />
<glyph unicode="&#xe9a0;" d="M891.871 233.29v-33.032h-66.065v-33.032h99.097v66.065h-33.032z" />
<glyph unicode="&#xe9a1;" d="M891.871 2.065h33.032v33.032h33.032v33.032h-33.032v66.065h-33.032v-132.129z" />
<glyph unicode="&#xe9a2;" d="M924.903 167.226h33.032v-33.032h-33.032v33.032z" />
<glyph unicode="&#xe9a3;" d="M759.742 35.097h99.097v-33.032h-99.097v33.032z" />
<glyph unicode="&#xe9a4;" d="M759.742 101.161h99.097v-33.032h-99.097v33.032z" />
<glyph unicode="&#xe9a5;" d="M693.677 68.129h66.065v-33.032h-66.065v33.032z" />
<glyph unicode="&#xe9a6;" d="M264.258 167.226h33.032v-132.129h-33.032v132.129z" />
<glyph unicode="&#xe9a7;" d="M198.194 299.355h66.065v-33.032h-66.065v33.032z" />
<glyph unicode="&#xe9a8;" d="M297.29 299.355h66.065v-33.032h-66.065v33.032z" />
<glyph unicode="&#xe9a9;" d="M198.194 398.452h33.032v-66.065h-33.032v66.065z" />
<glyph unicode="&#xe9aa;" d="M231.226 530.581h33.032v-66.065h-33.032v66.065z" />
<glyph unicode="&#xe9ab;" d="M297.29 497.548h132.129v-33.032h-132.129v33.032z" />
<glyph unicode="&#xe9ac;" d="M264.258 431.484h66.065v-33.032h-66.065v33.032z" />
<glyph unicode="&#xe9ad;" d="M363.355 431.484h99.097v-33.032h-99.097v33.032z" />
<glyph unicode="&#xe9ae;" d="M330.323 398.452h33.032v-66.065h-33.032v66.065z" />
<glyph unicode="&#xe9af;" d="M396.387 365.419h66.065v-33.032h-66.065v33.032z" />
<glyph unicode="&#xe9b0;" d="M528.516 563.613h-33.032v-231.226h33.032v132.129h99.097v33.032h-99.097v66.065z" />
<glyph unicode="&#xe9b1;" d="M429.419 530.581h33.032v-33.032h-33.032v33.032z" />
<glyph unicode="&#xe9b2;" d="M561.548 563.613v-33.032h330.323v33.032h-33.032v66.065h-33.032v-66.065h-264.258z" />
<glyph unicode="&#xe9b3;" d="M561.548 431.484h33.032v-132.129h-33.032v132.129z" />
<glyph unicode="&#xe9b4;" d="M528.516 266.323h99.097v-33.032h-99.097v33.032z" />
<glyph unicode="&#xe9b5;" d="M627.613 299.355h165.161v33.032h-33.032v66.065h66.065v33.032h-99.097v-99.097h-99.097v-33.032z" />
<glyph unicode="&#xe9b6;" d="M660.645 464.516h33.032v-99.097h-33.032v99.097z" />
<glyph unicode="&#xe9b7;" d="M693.677 497.548h99.097v-33.032h-99.097v33.032z" />
<glyph unicode="&#xe9b8;" d="M660.645 249.806h33.032v-148.645h-33.032v148.645z" />
<glyph unicode="&#xe9b9;" d="M726.71 167.226h99.097v-33.032h-99.097v33.032z" />
<glyph unicode="&#xe9ba;" d="M759.742 266.323h33.032v-66.065h-33.032v66.065z" />
<glyph unicode="&#xe9bb;" d="M627.613 200.258h-33.032v-165.161h-33.032v66.065h-33.032v-66.065h-231.226v-33.032h396.387v33.032h-66.065v165.161z" />
<glyph unicode="&#xe9bc;" d="M330.323 101.161h99.097v-33.032h-99.097v33.032z" />
<glyph unicode="&#xe9bd;" d="M429.419 134.194h66.065v-33.032h-66.065v33.032z" />
<glyph unicode="&#xe9be;" d="M495.484 167.226h33.032v-33.032h-33.032v33.032z" />
<glyph unicode="&#xe9bf;" glyph-name="abc" d="M1003.602 468.398h-250.121v421.766c0 11.264-9.134 20.398-20.398 20.398h-442.164c-11.266 0-20.398-9.134-20.398-20.398v-421.766h-250.121c-11.266 0-20.398-9.134-20.398-20.398v-442.164c0-11.264 9.132-20.398 20.398-20.398h442.164c11.266 0 20.398 9.134 20.398 20.398v421.766h58.080v-421.766c0-11.264 9.134-20.398 20.398-20.398h442.162c11.264 0 20.398 9.134 20.398 20.398v442.164c0 11.264-9.134 20.398-20.398 20.398zM442.164 26.234h-401.367v401.367h401.367v-401.367zM311.316 468.398v401.367h401.367v-401.367h-401.367zM983.203 26.234h-401.367v401.367h401.367v-401.367zM530.563 780.859c-3.315 7.274-10.572 11.941-18.565 11.941s-15.25-4.667-18.563-11.941l-91.099-199.974c-4.671-10.25-0.145-22.348 10.107-27.020s22.348-0.143 27.020 10.107l24.925 54.715h95.222l24.925-54.715c3.423-7.513 10.83-11.947 18.575-11.947 2.829 0.002 5.703 0.592 8.445 1.84 10.252 4.671 14.777 16.77 10.107 27.020l-91.099 199.974zM482.975 659.485l29.025 63.712 29.025-63.712h-58.050zM196.486 105.423h7.537c25.221 0 48.995 0.2 68.21 8.449 25.196 10.819 37.97 33.154 37.97 66.389 0 28.837-13.259 44.316-29.359 53.96 7.839 11.144 12.17 23.907 12.17 37.137 0 74.838-60.398 74.838-92.845 74.838l-3.682-0.002c-11.266 0-20.398-9.134-20.398-20.398v-199.974c0-11.264 9.132-20.398 20.398-20.398zM216.884 305.003c29.245-1.642 35.334-9.124 35.334-33.647 0-7.688-4.265-15.174-11.902-21.273-7.531 1.94-15.399 3.327-23.432 4.139v50.782zM216.884 213.163c7.107-0.959 13.957-2.503 20.28-4.641 0 0 0.002 0 0.004-0.002 28.323-9.575 32.242-13.010 32.242-28.26-0.002-23.205-8.308-26.771-13.269-28.903-9.21-3.953-23.379-4.855-39.257-5.067v66.872zM684.909 225.806c0-67.606 51.016-122.607 113.721-122.607 24.913 0 48.569 8.524 68.412 24.649 8.743 7.105 10.071 19.952 2.966 28.694s-19.954 10.067-28.694 2.966c-12.49-10.15-27.248-15.513-42.684-15.513-40.211 0-72.924 36.699-72.924 81.81s32.713 81.81 72.924 81.81c15.433 0 30.194-5.365 42.684-15.513 8.745-7.105 21.59-5.777 28.694 2.966s5.777 21.59-2.966 28.694c-19.846 16.125-43.5 24.649-68.412 24.649-62.707 0.002-113.721-55-113.721-122.607zM624.191 366.406h99.952c11.264 0 20.398 9.134 20.398 20.398s-9.134 20.398-20.398 20.398h-99.952c-11.264 0-20.398-9.134-20.398-20.398s9.134-20.398 20.398-20.398zM785.339 366.406h30.598c11.264 0 20.398 9.134 20.398 20.398s-9.134 20.398-20.398 20.398h-30.598c-11.264 0-20.398-9.134-20.398-20.398s9.134-20.398 20.398-20.398z" />
<glyph unicode="&#xe9c0;" glyph-name="down-up" d="M512.213-64c-283.078 0-512.213 229.135-512.213 512.124 0 282.732 229.135 511.866 512.213 511.866 282.732 0 511.787-229.144 511.787-511.866 0-282.989-229.055-512.124-511.787-512.124v0zM512.213 891.647c-244.574 0-443.523-198.949-443.523-443.523 0-244.485 198.949-443.444 443.523-443.444 244.495 0 443.186 198.949 443.186 443.444-0.010 244.574-198.701 443.523-443.186 443.523v0zM707.815 335.958l-198.355 198.266-198.266-198.266c-13.379-13.379-35.157-13.379-48.626 0-13.379 13.379-13.379 35.157 0 48.536l222.796 222.45c6.685 6.685 15.439 10.032 24.095 10.032 9.091 0 17.757-3.347 24.531-10.032l222.361-222.45c13.469-13.379 13.469-35.157 0-48.536-13.37-13.379-35.157-13.379-48.536 0v0z" />
<glyph unicode="&#xe9c1;" horiz-adv-x="1319" d="M336.457 558.69h-43.886c17.554 19.017 28.77 44.861 28.77 73.143 0 59.49-48.274 107.764-107.764 107.764s-107.764-48.274-107.764-107.764c0-28.282 10.728-53.638 28.77-73.143h-43.886c-50.225 0-90.697-40.472-90.697-90.21v-144.823h426.667v144.823c0 49.737-40.472 90.21-90.21 90.21zM139.459 631.832c0 40.472 33.158 73.63 73.63 73.63s73.63-33.158 73.63-73.63c0-37.547-28.282-68.754-64.366-73.143h-18.53c-36.084 4.389-64.366 35.596-64.366 73.143zM392.533 357.79h-358.4v110.69c0 30.72 25.356 56.076 56.076 56.076h111.177c3.901-0.488 7.802-0.488 11.703-0.488s7.802 0 11.703 0.488h111.665c30.72 0 56.076-25.356 56.076-56.076v-110.69z" />
<glyph unicode="&#xe9c2;" horiz-adv-x="1319" d="M680.716 960c-183.832 0-345.234-97.524-435.444-243.322l37.547-9.265c84.846 129.707 231.619 216.015 397.897 216.015 261.851 0 474.941-213.090 474.941-474.941s-213.090-474.941-474.941-474.941c-218.941 0-403.749 148.724-458.362 350.598h-38.034c55.589-222.842 256.975-388.145 496.396-388.145 282.331 0 512 229.669 512 512s-229.669 512-512 512z" />
<glyph unicode="&#xe9c3;" horiz-adv-x="1319" d="M1319.010 299.276h-420.815v269.653l148.724 120.442h272.091z" />
<glyph unicode="&#xe9c4;" horiz-adv-x="1319" d="M1071.787 540.16h-173.592v30.72h143.36v118.491h30.232z" />
<glyph unicode="&#xe9c5;" horiz-adv-x="1319" d="M1177.112 624.518h85.821v-28.282h-85.821v28.282z" />
<glyph unicode="&#xe9c6;" horiz-adv-x="1319" d="M1096.655 552.35h166.278v-28.282h-166.278v28.282z" />
<glyph unicode="&#xe9c7;" horiz-adv-x="1319" d="M974.263 482.621h286.72v-28.282h-286.72v28.282z" />
<glyph unicode="&#xe9c8;" horiz-adv-x="1319" d="M974.263 409.966h210.651v-28.282h-210.651v28.282z" />
<glyph unicode="&#xe9c9;" horiz-adv-x="1319" d="M1223.436 409.966h37.547v-28.282h-37.547v28.282z" />
<glyph unicode="&#xe9ca;" horiz-adv-x="1319" d="M1094.705 623.055h37.547v-28.282h-37.547v28.282z" />
<glyph unicode="&#xe9cb;" horiz-adv-x="1004" d="M485.423 287.437h33.387v-351.437h-33.387v351.437z" />
<glyph unicode="&#xe9cc;" horiz-adv-x="1004" d="M401.517 287.437h33.387v-267.971h-33.387v267.971z" />
<glyph unicode="&#xe9cd;" horiz-adv-x="1004" d="M318.051 136.758h33.387v-33.387h-33.387v33.387z" />
<glyph unicode="&#xe9ce;" horiz-adv-x="1004" d="M318.051 287.437h33.387v-117.292h-33.387v117.292z" />
<glyph unicode="&#xe9cf;" horiz-adv-x="1004" d="M568.889 53.292h33.387v-33.387h-33.387v33.387z" />
<glyph unicode="&#xe9d0;" d="M365.714 228.571h292.571v-146.286h-292.571v146.286z" />
<glyph unicode="&#xe9d1;" d="M268.849 660.334c4.267-80.969 48.030-151.503 112.542-192.658l-115.054-41.838c-86.382-31.427-144.433-114.298-144.433-206.214v-283.624h780.19v283.624c0 91.941-58.051 174.787-144.433 206.214l-115.054 41.838c67.925 43.301 113.201 119.15 113.201 205.507v39.979c0 128.503-104.893 241.179-233.28 246.616-137.57 5.824-251.419-103.086-254.095-238.784v0c-1.524-23.537-1.314-38.961 0.414-60.66v0zM459.752-15.238c2.072 7.924 3.486 16.043 3.486 24.381 0 8.46-1.414 16.53-3.462 24.381h104.448c-2.048-7.851-3.462-15.921-3.462-24.381 0-8.338 1.414-16.457 3.486-24.381h-104.497zM429.544 82.286c-17.14 14.994-39.302 24.381-63.829 24.381h-48.762v146.286c0 13.464 10.917 24.381 24.381 24.381h341.333c13.464 0 24.381-10.917 24.381-24.381v-146.286h-48.762c-24.503 0-46.665-9.387-63.829-24.381h-164.913zM740.962 380.002c67.218-24.43 112.372-88.893 112.372-160.378v-234.862h-237.178c-7.208 12.44-8.987 27.73-3.109 42.466 7.515 18.831 26.362 30.677 46.635 30.677h144.89v48.762h-48.762v146.286c0 40.396-32.747 73.143-73.143 73.143h-341.333c-40.396 0-73.143-32.747-73.143-73.143v-146.286h-48.762v-48.762h144.887c20.276 0 39.122-11.846 46.638-30.677 5.882-14.735 4.099-30.028-3.109-42.466h-237.178v234.862c0 71.509 45.154 135.948 112.323 160.378l111.665 40.619c14.482-51.176 61.586-88.771 117.321-88.771s102.863 37.595 117.321 88.771l111.665-40.619zM440.222 440.174c22.699-6.997 46.787-10.801 71.778-10.801s49.079 3.803 71.778 10.801c-6.388-33.841-36.084-59.563-71.778-59.563s-65.39 25.722-71.778 59.563zM316.952 716.19c0 110.665 92.657 200.11 204.462 194.825 104.445-4.937 185.634-93.123 185.634-197.687v-37.282c0-104.564-81.189-192.75-185.634-197.687-111.805-5.288-204.462 84.157-204.462 194.822v43.008z" />
<glyph unicode="&#xe9d2;" d="M1024 596.645h-363.355v247.742l115.613 115.613h247.742v-363.355z" />
<glyph unicode="&#xe9d3;" d="M866.981 231.424c35.146 27.202 57.922 69.682 57.922 117.479v33.032c0 81.953-66.692 148.645-148.645 148.645s-148.645-66.692-148.645-148.645v-33.032c0-47.798 22.776-90.277 57.922-117.479-83.142-11.363-148.546-79.030-156.193-163.278h-183.825c-7.284 50.523-47.253 90.492-97.775 97.775v67.369h214.71v330.323h-214.71v67.386c50.523 7.284 90.508 47.253 97.775 97.775h315.128v33.032h-315.128c-8.060 55.94-56.171 99.097-114.292 99.097-63.752 0-115.613-51.861-115.613-115.613 0-58.12 43.157-106.232 99.097-114.292v-67.386h-214.71v-330.323h214.71v-67.386c-55.94-8.060-99.097-56.171-99.097-114.292 0-63.752 51.861-115.613 115.613-115.613 58.137 0 106.232 43.157 114.292 99.097h182.999v-99.097h495.484v115.613c0 91.797-68.492 167.705-157.019 179.811zM148.645 745.29c0 45.535 37.046 82.581 82.581 82.581s82.581-37.046 82.581-82.581-37.046-82.581-82.581-82.581-82.581 37.046-82.581 82.581zM302.873 416.223l126.547 97.33v-223.876l-126.547 126.547zM231.226 402.779l-166.152 127.802h332.305l-166.152-127.802zM159.579 416.223l-126.547-126.547v223.876l126.547-97.33zM185.972 395.908l45.254-34.816 45.254 34.816 129.586-129.586h-349.679l129.586 129.586zM660.645 348.903v33.032c0 63.752 51.861 115.613 115.613 115.613s115.613-51.861 115.613-115.613v-33.032c0-63.752-51.861-115.613-115.613-115.613s-115.613 51.861-115.613 115.613zM776.258 200.258c17.391 0 34.023 3.155 49.548 8.671v-8.671c0-27.318-22.231-49.548-49.548-49.548s-49.548 22.231-49.548 49.548v8.671c15.525-5.516 32.157-8.671 49.548-8.671zM231.226-30.968c-45.535 0-82.581 37.046-82.581 82.581s37.046 82.581 82.581 82.581 82.581-37.046 82.581-82.581-37.046-82.581-82.581-82.581zM990.968-30.968h-66.065v99.097h-33.032v-99.097h-231.226v99.097h-33.032v-99.097h-66.065v82.581c0 76.387 57.906 139.495 132.129 147.72 0.495-45.106 37.343-81.656 82.581-81.656 45.221 0 82.085 36.55 82.581 81.672 74.223-8.242 132.129-71.35 132.129-147.72v-82.597z" />
<glyph unicode="&#xe9d4;" d="M809.29 960h-33.032v-115.613h-115.613v-33.032h148.645z" />
<glyph unicode="&#xe9d5;" d="M842.323 893.935h33.032v-33.032h-33.032v33.032z" />
<glyph unicode="&#xe9d6;" d="M908.387 893.935h49.548v-33.032h-49.548v33.032z" />
<glyph unicode="&#xe9d7;" d="M842.323 827.871h115.613v-33.032h-115.613v33.032z" />
<glyph unicode="&#xe9d8;" d="M726.71 761.806h231.226v-33.032h-231.226v33.032z" />
<glyph unicode="&#xe9d9;" d="M924.903 695.742h33.032v-33.032h-33.032v33.032z" />
<glyph unicode="&#xe9da;" d="M726.71 695.742h165.161v-33.032h-165.161v33.032z" />
<glyph unicode="&#xe9db;" d="M280.774 745.29c0-27.365-22.184-49.548-49.548-49.548s-49.548 22.184-49.548 49.548c0 27.365 22.184 49.548 49.548 49.548s49.548-22.184 49.548-49.548z" />
<glyph unicode="&#xe9dc;" d="M280.774 51.613c0-27.365-22.184-49.548-49.548-49.548s-49.548 22.184-49.548 49.548c0 27.365 22.184 49.548 49.548 49.548s49.548-22.184 49.548-49.548z" />
<glyph unicode="&#xe9dd;" d="M544 752v32c0 36.928 14.016 70.512 36.88 96h-404.88v-192h383.152c-9.616 19.296-15.152 40.976-15.152 64z" />
<glyph unicode="&#xe9de;" d="M928 688h-93.456c8.608 19.616 13.456 41.248 13.456 64v32c0 88.224-71.776 160-160 160h-576v-256h-16c-44.112 0-80-35.888-80-80v-480c0-44.112 35.888-80 80-80h176v-64h-64v-32h608v32h-64v64h176c44.112 0 80 35.888 80 80v480c0 44.112-35.888 80-80 80zM928 656c26.464 0 48-21.536 48-48v-164.224l-12.528 45.12c-15.056 54.256-60.736 94.96-116.352 103.696l-79.872 12.576 0.336 8.224c18.784 10.832 35.12 25.36 48.112 42.608h112.304zM893.12 400l-13.424 67.136-31.376-6.288 12.16-60.848h-111.36l-12.128 60.64 16.032 24.032 23.952-9.344 36.080 90.224 29.088-4.576c43.248-6.8 78.784-38.448 90.48-80.64l22.336-80.336h-61.84zM496.32 467.136l-13.44-67.136h-61.712l22.368 78.768c11.632 40.864 46.128 72.112 87.92 79.632l32.032 5.76 35.632-89.072 23.76 9.744 16.128-24.176-12.128-60.656h-111.36l12.176 60.864-31.376 6.272zM620.048 574.32l44.272-37.92-47.472-19.472-21.2 53.008 24.4 4.384zM711.44 480h-46.88l-11.456 17.2 33.088 13.568 36.32-14.176-11.072-16.592zM759.024 516.672l-52.208 20.384 47.824 37.68 25.984-4.096-21.6-53.968zM685.12 560.704l-45.12 38.672c15.168-4.768 31.28-7.376 48-7.376 15.696 0 30.848 2.368 45.2 6.608l-48.080-37.904zM669.12 448h37.776l9.6-48h-56.976l9.6 48zM816 784v-32c0-70.576-57.424-128-128-128s-128 57.424-128 128v32c0 70.576 57.424 128 128 128s128-57.424 128-128zM144 912h448.416c-39.008-29.2-64.416-75.632-64.416-128v-32c0-59.056 32.256-110.624 80-138.352v-8.992l-82.192-14.768c-53.728-9.664-98.112-49.84-113.040-102.368l-33.936-119.52h245.168v-96h-480v640zM96 656h16v-416h544v128h320v-192h-928v432c0 26.464 21.536 48 48 48zM720-16h-416v64h416v-64zM928 80h-832c-26.464 0-48 21.536-48 48v16h928v-16c0-26.464-21.536-48-48-48z" />
<glyph unicode="&#xe9df;" d="M176 656h32v-32h-32v32z" />
<glyph unicode="&#xe9e0;" d="M240 656h112v-32h-112v32z" />
<glyph unicode="&#xe9e1;" d="M176 592h176v-32h-176v32z" />
<glyph unicode="&#xe9e2;" d="M176 528h176v-32h-176v32z" />
<glyph unicode="&#xe9e3;" d="M176 464h176v-32h-176v32z" />
<glyph unicode="&#xe9e4;" d="M560 336h32v-32h-32v32z" />
<glyph unicode="&#xe9e5;" d="M176 336h352v-32h-352v32z" />
<glyph unicode="&#xe9e6;" d="M176 400h176v-32h-176v32z" />
<glyph unicode="&#xe9e7;" d="M1008 112c0 30.4-21.344 55.808-49.824 62.288 10.976 13.696 17.824 30.832 17.824 49.712v139.52c0 60-32 114.672-81.504 145.168 18.672 7.92 35.856 19.408 50.64 34.176 62.384 62.384 62.384 163.888 0 226.272-30.208 30.224-70.4 46.864-113.136 46.864s-82.928-16.64-113.136-46.864c-62.384-62.384-62.384-163.888 0-226.272 14-14 30.192-24.928 47.712-32.8-32.144-23.28-56.256-56.080-68.8-94.064h-129.776c-30.88 0-56-25.12-56-56s25.12-56 56-56h120v-33.28c-54.176-7.808-96-54.416-96-110.72v-208h144v176c0 8.816 7.168 16 16 16h8.896c-5.504-9.456-8.896-20.288-8.896-32 0-16.080 6.16-30.624 16-41.888v-118.112h96v96h32v-96h96v118.112c9.84 11.264 16 25.808 16 41.888zM741.488 746.512c24.176 24.176 56.32 37.488 90.512 37.488s66.336-13.312 90.512-37.488c49.904-49.904 49.904-131.104 0-181.008-24.176-24.192-56.32-37.504-90.512-37.504s-66.336 13.312-90.512 37.488c-49.904 49.904-49.904 131.12 0 181.024zM803.872 496h41.824c0.144-0.048 0.288-0.112 0.432-0.16-13.344-0.4-26.288-5.152-36.56-13.728l-70.48-58.704c-1.76-1.472-3.712-2.656-5.712-3.712 14.176 32.48 38.8 59.52 70.496 76.304zM544 360c0 13.232 10.768 24 24 24h150.624c14.944 0 29.488 5.264 40.96 14.832l70.48 58.704c4.976 4.176 11.312 6.464 17.808 6.464h4.288c15.36 0 27.84-12.48 27.84-27.84 0-8.144-3.552-15.84-9.712-21.136l-69.712-59.76c-14.512-12.432-33.008-19.264-52.096-19.264h-180.48c-13.232 0-24 10.768-24 24zM748.48 304c26.72 0 52.608 9.584 72.896 26.96l69.712 59.76c13.28 11.392 20.912 27.952 20.912 45.44 0 6.96-1.424 13.536-3.616 19.744 22.288-24.848 35.616-57.52 35.616-92.384v-91.52h-224v32h28.48zM704 128v-144h-80v176c0 44.112 35.888 80 80 80h240v-16c0-26.464-21.536-48-48-48h-144c-26.464 0-48-21.536-48-48zM832-16h-32v64h32v-64zM864 80h-48c-17.648 0-32 14.352-32 32s14.352 32 32 32h128c17.648 0 32-14.352 32-32s-14.352-32-32-32h-80zM960-16h-32v64h32v-64z" />
<glyph unicode="&#xe9e8;" d="M512 320c0 26.464-21.536 48-48 48h-169.376l201.072 201.072c9.52-5.632 20.464-9.072 32.304-9.072 35.296 0 64 28.704 64 64s-28.704 64-64 64c-14.272 0-27.344-4.864-38-12.784l-159.040 57.84c-7.824 24.128-24.592 44.272-46.896 56.608 12.448 16.176 19.936 36.384 19.936 58.336 0 52.944-43.056 96-96 96s-96-43.056-96-96c0-21.952 7.488-42.16 19.936-58.352-31.392-17.36-51.936-50.368-51.936-87.616v-78.032h256v73.152l133.008-48.368c-3.216-7.632-5.008-16-5.008-24.784 0-11.84 3.44-22.784 9.072-32.304l-197.36-197.36-44.416 144.384c-6.864 22.288-27.136 37.28-50.48 37.28-29.136 0-52.816-23.696-52.816-52.816v-6.032c0-4.896 0.688-9.76 2.032-14.512l56.768-198.64h-170.8v-160h32v-192h96v192h288v-192h96v192h32v160h-50.944c1.792 5.024 2.944 10.368 2.944 16zM528 656c17.648 0 32-14.352 32-32s-14.352-32-32-32-32 14.352-32 32 14.352 32 32 32zM208 912c35.296 0 64-28.704 64-64s-28.704-64-64-64-64 28.704-64 64 28.704 64 64 64zM304 656h-192v46.032c0 29.28 18.56 54.752 45.728 64.336 14.64-9.040 31.824-14.368 50.272-14.368s35.632 5.328 50.272 14.368c27.168-9.584 45.728-35.056 45.728-64.336v-46.032zM160.816 511.424c-0.544 1.888-0.816 3.808-0.816 5.728v6.032c0 11.488 9.344 20.816 20.816 20.816 9.2 0 17.184-5.904 19.888-14.688l59.488-193.312h203.808c8.832 0 16-7.184 16-16s-7.168-16-16-16h-243.936l-59.248 207.424zM80-16v32h32v-32h-32zM112 48h-32v96h32v-96zM464-16v32h32v-32h-32zM496 48h-32v96h32v-96zM528 176h-480v96h480v-96z" />
<glyph unicode="&#xe9e9;" d="M48 272h480v-64h-480v64z" />
<glyph unicode="&#xe9ea;" d="M240 848c0-17.673-14.327-32-32-32s-32 14.327-32 32c0 17.673 14.327 32 32 32s32-14.327 32-32z" />
<glyph unicode="&#xe9eb;" d="M844.855 813.019l-76.855 0.695v73.143h-355.017l-73.143-73.143-166.123-1.298c-13.687-1.106-27.179-0.434-40.677 0h0.373c-44.288-6.327-78.555-44.123-78.555-90.13v-530.286h-54.857v-91.429c0-50.414 41.015-91.429 91.429-91.429h841.143c50.414 0 91.429 41.015 91.429 91.429v91.429h-54.857v530.286c0 48.037-37.376 87.113-84.498 90.734h1.342c-13.367 0-26.736 0-40.103 0h-1.029zM768 777.143h60.398l-16.457-36.571h-43.941v36.571zM768 704h27.483l-27.483-61.093v61.093zM438.857 704v146.286h292.571v-548.571h-438.857v402.286h146.286zM402.286 824.43v-83.858h-83.858l83.858 83.858zM303.287 777.143l-36.571-36.571h-58.807l-17.317 36.571h112.695zM256 704v-64.969l-30.775 64.969h30.775zM184.759 704l71.241-150.4v-288.457h512v288.64l67.602 150.217h23.826v-512h-201.143v-36.571h36.571v-18.286c0-10.075-8.21-18.286-18.286-18.286h-329.143c-10.075 0-18.286 8.21-18.286 18.286v18.286h292.571v36.571h-457.143v512h20.187zM91.429 722.286c0 30.245 24.613 54.857 54.857 54.857h3.822l17.317-36.571h-2.853c-20.169 0-36.571-16.402-36.571-36.571v-512h-36.571v530.286zM987.429 155.429v-54.857c0-30.245-24.613-54.857-54.857-54.857h-841.143c-30.245 0-54.857 24.613-54.857 54.857v54.857h256v-18.286c0-30.245 24.613-54.857 54.857-54.857h329.143c30.245 0 54.857 24.613 54.857 54.857v18.286h256zM877.714 777.143c30.245 0 54.857-24.613 54.857-54.857v-530.286h-36.571v512c0 20.169-16.402 36.571-36.571 36.571h-7.369l16.457 36.571h9.198z" />
<glyph unicode="&#xe9ec;" d="M85.714 118.857h36.571v-36.571h-36.571v36.571z" />
<glyph unicode="&#xe9ed;" d="M158.857 118.857h36.571v-36.571h-36.571v36.571z" />
<glyph unicode="&#xe9ee;" d="M512 673.342c-90.363 0-163.627-73.259-163.627-163.627s73.262-163.627 163.627-163.627c90.375 0 163.627 73.259 163.627 163.627s-73.257 163.627-163.627 163.627zM481.984 425.662l-72.048 72.046 24.014 24.014 48.034-48.032 108.066 108.069 24.014-24.014-132.080-132.082z" />
<glyph unicode="&#xe9ef;" glyph-name="time" horiz-adv-x="1025" d="M983.681 647.394c-53.988 125.933-145.771 217.552-272.81 271.704-63.43 27.069-129.951 40.902-199.401 40.902-69.495 0-135.494-13.714-198.863-40.902-125.933-54.048-218.134-145.547-272.287-271.704-27.069-63.191-40.319-129.369-40.319-198.863 0-69.45 13.251-136.211 40.319-199.401 54.153-126.157 146.354-218.254 272.287-272.287 63.37-27.188 129.369-40.842 198.863-40.842 69.45 0 135.972 13.773 199.401 40.842 126.979 54.153 218.762 146.354 272.81 272.287 27.188 63.37 40.902 129.951 40.902 199.401 0 69.495-13.654 135.494-40.902 198.863v0zM901.921 222.225c-40.2-68.972-95.294-123.707-164.729-164.146-68.927-40.215-144.487-60.516-225.723-60.516-61.039 0-119.33 11.787-174.767 35.883-55.497 24.111-103.346 55.736-143.426 95.772-40.036 40.080-71.96 88.392-95.772 144.009-23.797 55.318-35.3 114.266-35.3 175.305 0 81.221 19.958 156.438 59.934 225.185 40.14 69.032 95.234 123.827 164.146 164.146 68.852 40.319 143.964 60.516 225.185 60.516 81.236 0 156.736-20.317 225.723-60.516 69.375-40.439 124.349-95.234 164.729-164.146 40.319-68.867 60.457-143.964 60.457-225.185 0-81.236-20.018-156.916-60.457-226.306v0zM543.916 453.012v290.198c0 17.389-15.118 31.401-32.447 31.401-16.283 0-30.804-14.012-30.804-31.401v-294.68c0-0.538 1.105-2.808 1.105-4.437-1.105-10.099 1.688-18.509 8.396-25.276l167.477-167.477c11.204-11.204 31.984-11.204 43.128 0 12.892 12.907 12.085 31.58 0 43.711l-156.856 157.961z" />
<glyph unicode="&#xe9f0;" d="M725.15-54.112l-32.961 494.421h98.884l-197.768 230.73-197.768-230.73h98.884l-32.961-494.421h263.691z" />
<glyph unicode="&#xe9f1;" d="M856.996 802.884v148.326h-856.996v-758.112c0-54.54 44.344-98.884 98.884-98.884h355.93l-9.818-147.245 32.891-2.18 34.148 512h-80.689l161.959 188.926 161.941-188.926h-80.689l34.13-511.982 32.891 2.18-9.783 147.227h191.123c54.54 0 98.884 44.344 98.884 98.884v609.785h-164.807zM32.961 193.099v725.15h791.073v-115.365h-368.877l-32.961 65.923h-257.389v-675.708c0-36.363-29.564-65.923-65.923-65.923s-65.923 29.56-65.923 65.923v0zM988.841 193.099c0-36.363-29.564-65.923-65.923-65.923h-193.338l-19.777 296.652h117.079l-233.577 272.547-233.595-272.547h117.079l-19.777-296.652h-284.615c15.707 17.527 25.371 40.582 25.371 65.923v642.747h204.070l32.961-65.923h554.041v-576.824z" />
<glyph unicode="&#xe9f2;" glyph-name="video-player" d="M650.685 465.208l-195.896 124.705c-5.476 3.473-12.444 3.74-18.187 0.601-5.654-3.117-9.216-9.127-9.216-15.649v-249.299c0-6.522 3.562-12.533 9.216-15.649 2.694-1.402 5.654-2.182 8.615-2.182 3.295 0 6.701 0.957 9.572 2.783l195.896 124.705c5.142 3.206 8.281 8.949 8.281 15.048 0 6.077-3.139 11.731-8.281 14.937v0zM463.048 357.999v184.431l144.874-92.16-144.874-92.271zM1015.14 859.826h-997.309c-9.839 0-17.831-7.992-17.831-17.831v-783.56c0-9.817 7.992-17.831 17.831-17.831h997.309c9.817 0 17.72 8.014 17.72 17.831v783.56c0 9.839-7.903 17.831-17.72 17.831v0zM178.087 467.99h-142.425v160.367h142.425v-160.367zM35.662 432.44h142.425v-160.256h-142.425v160.256zM213.749 254.353v569.811h605.473v-747.898h-605.473v178.087zM997.309 467.99h-142.536v160.367h142.536v-160.367zM854.773 432.44h142.536v-160.256h-142.536v160.256zM997.309 824.164v-160.256h-142.536v160.256h142.536zM35.662 824.164h142.425v-160.256h-142.425v160.256zM35.662 76.266v160.256h142.425v-160.256h-142.425zM997.309 76.266h-142.536v160.256h142.536v-160.256z" />
<glyph unicode="&#xe9f3;" d="M349.528 915.442c-184.184 0-333.494-132.72-333.494-296.44 0-79.336 35.062-151.392 92.162-204.592l-40.856-108.95 110.908 59.15c50.064-26.69 108.65-42.048 171.28-42.048 184.184 0 333.494 132.72 333.494 296.44s-149.31 296.44-333.494 296.44z" />
<glyph unicode="&#xe9f4;" d="M67.34 624.704c0 125.15 80.91 232.852 197.076 280.982-142.952-33.446-248.382-149.116-248.382-286.684 0-79.336 35.062-151.392 92.162-204.592l-40.856-108.95 110.908 59.15c46.174-24.616 99.604-39.56 156.76-41.74-152.654 28.212-267.668 152.618-267.668 301.834z" />
<glyph unicode="&#xe9f5;" d="M494.896 630.396c0-28.336-22.97-51.306-51.306-51.306s-51.306 22.97-51.306 51.306c0 28.336 22.97 51.306 51.306 51.306s51.306-22.97 51.306-51.306z" />
<glyph unicode="&#xe9f6;" d="M306.772 630.396c0-28.336-22.97-51.306-51.306-51.306s-51.306 22.97-51.306 51.306c0 28.336 22.97 51.306 51.306 51.306s51.306-22.97 51.306-51.306z" />
<glyph unicode="&#xe9f7;" d="M1007.966 305.458c0 151.124-137.826 273.636-307.842 273.636s-307.842-122.512-307.842-273.636 137.826-273.636 307.842-273.636c37.988 0 74.36 6.132 107.956 17.318l114.374-68.626-25.464 114.584c67.808 50.194 110.976 125.792 110.976 210.36z" />
<glyph unicode="&#xe9f8;" d="M460.694 305.458c0 140.846 119.72 256.818 273.636 271.946-11.232 1.104-22.642 1.69-34.204 1.69-170.016 0-307.842-122.512-307.842-273.636s137.826-273.636 307.842-273.636c11.578 0 23.002 0.578 34.248 1.686-153.938 15.11-273.68 131.092-273.68 271.95z" />
<glyph unicode="&#xe9f9;" d="M648.818 305.452c0-28.336-22.97-51.306-51.306-51.306s-51.306 22.97-51.306 51.306c0 28.336 22.97 51.306 51.306 51.306s51.306-22.97 51.306-51.306z" />
<glyph unicode="&#xe9fa;" d="M854.046 305.452c0-28.336-22.97-51.306-51.306-51.306s-51.306 22.97-51.306 51.306c0 28.336 22.97 51.306 51.306 51.306s51.306-22.97 51.306-51.306z" />
<glyph unicode="&#xe9fb;" d="M510.932 630.402c0 37.132-30.21 67.34-67.34 67.34s-67.34-30.21-67.34-67.34 30.21-67.34 67.34-67.34 67.34 30.208 67.34 67.34zM408.318 630.402c0 19.45 15.824 35.274 35.274 35.274s35.274-15.824 35.274-35.274-15.824-35.274-35.274-35.274c-19.45 0-35.274 15.824-35.274 35.274z" />
<glyph unicode="&#xe9fc;" d="M322.806 630.402c0 37.132-30.21 67.34-67.34 67.34s-67.34-30.21-67.34-67.34 30.21-67.34 67.34-67.34 67.34 30.208 67.34 67.34zM220.192 630.402c0 19.45 15.824 35.274 35.274 35.274s35.274-15.824 35.274-35.274-15.824-35.274-35.274-35.274-35.274 15.824-35.274 35.274z" />
<glyph unicode="&#xe9fd;" d="M1024 305.458c0 80.282-35.852 154.924-100.952 210.17-6.752 5.728-16.872 4.898-22.598-1.852-5.73-6.752-4.902-16.87 1.85-22.598 57.802-49.056 89.636-115.010 89.636-185.72 0-76.346-38.080-148.324-104.48-197.472-5.090-3.768-7.486-10.182-6.112-16.364l17.37-78.162-82.38 49.43c-4.010 2.404-8.876 2.942-13.314 1.464-32.88-10.948-67.496-16.5-102.892-16.5-160.902 0-291.808 115.56-291.808 257.604s130.906 257.604 291.808 257.604c52.866 0 104.644-12.612 149.742-36.478 7.822-4.14 17.53-1.154 21.67 6.672 4.144 7.826 1.154 17.528-6.672 21.67-49.7 26.3-106.666 40.202-164.74 40.202-0.71 0-1.414-0.020-2.12-0.024 0.672 7.946 1.052 15.936 1.052 23.896 0 172.3-156.798 312.474-349.528 312.474s-349.532-140.176-349.532-312.472c0-35.862 6.738-71.030 20.028-104.53 3.39-8.55 13.626-12.526 21.912-8.51 7.452 3.612 10.948 12.64 7.894 20.334-11.792 29.72-17.77 60.91-17.77 92.706 0 154.618 142.412 280.408 317.462 280.408s317.462-125.79 317.462-280.408c0-8.506-0.446-17.050-1.308-25.512-149.818-14.232-269.446-120.194-287.148-253.714-9.616-0.77-19.346-1.18-29.006-1.18-57.83 0-114.448 13.89-163.736 40.164-4.714 2.514-10.374 2.514-15.088-0.002l-73.442-39.168 25.946 69.19c2.278 6.082 0.67 12.936-4.084 17.362-15.272 14.226-28.884 29.9-40.462 46.584-5.050 7.27-15.038 9.082-22.314 4.030-7.274-5.048-9.080-15.038-4.032-22.314 10.874-15.67 23.346-30.524 37.166-44.27l-37.154-99.082c-5.066-13.508 9.77-26.6 22.558-19.776l103.476 55.188c52.074-26.176 111.058-39.972 171.166-39.972 8.898 0 17.86 0.31 26.75 0.91-0.004-0.66-0.028-1.316-0.028-1.98 0-159.724 145.288-289.67 323.874-289.67 36.316 0 71.916 5.334 105.938 15.866l108.142-64.89c11.856-7.104 26.886 3.794 23.9 17.228l-23.244 104.6c69.498 55.038 109.142 133.526 109.142 216.864z" />
<glyph unicode="&#xe9fe;" d="M530.172 305.458c0-37.132 30.21-67.34 67.34-67.34s67.34 30.21 67.34 67.34c0 37.132-30.21 67.34-67.34 67.34s-67.34-30.208-67.34-67.34zM632.784 305.458c0-19.45-15.824-35.274-35.274-35.274s-35.274 15.824-35.274 35.274 15.824 35.274 35.274 35.274c19.452 0 35.274-15.826 35.274-35.274z" />
<glyph unicode="&#xe9ff;" d="M802.74 372.8c-37.132 0-67.34-30.21-67.34-67.34 0-37.132 30.21-67.34 67.34-67.34 37.132 0 67.34 30.21 67.34 67.34s-30.21 67.34-67.34 67.34zM802.74 270.186c-19.45 0-35.274 15.824-35.274 35.274s15.824 35.274 35.274 35.274c19.45 0 35.274-15.824 35.274-35.274s-15.826-35.274-35.274-35.274z" />
<glyph unicode="&#xea00;" horiz-adv-x="1004" d="M568.889 287.437h33.387v-200.758h-33.387v200.758z" />
<glyph unicode="&#xea01;" horiz-adv-x="1004" d="M652.795 287.437h33.387v-184.065h-33.387v184.065z" />
<glyph unicode="&#xea02;" horiz-adv-x="1004" d="M619.408 672.261c0-64.577-52.276-117.292-117.292-117.292-64.577 0-117.292 52.276-117.292 117.292 0 64.577 52.276 117.292 117.292 117.292 64.577 0 117.292-52.276 117.292-117.292v0z" />
<glyph unicode="&#xea03;" horiz-adv-x="1004" d="M702.874 552.772v109.824c0 106.31-53.594 203.394-143.211 260.503l-57.548 36.901-57.548-36.901c-89.616-57.109-143.211-154.632-143.211-260.503v-109.824c-86.981-16.693-150.679-92.692-150.679-182.747v-199.88h33.387c0 55.351 45.248 100.599 100.599 100.599h434.903c55.351 0 100.599-45.248 100.599-100.599h33.387v199.88c0 90.056-63.698 166.054-150.679 182.747v0zM462.14 894.984l39.976 25.479 39.976-25.479c79.952-50.958 127.396-137.5 127.396-232.388v-207.787h-334.744v207.787c0 94.888 47.444 181.429 127.396 232.388v0zM284.664 304.13c-39.976 0-75.998-17.572-100.599-45.248v111.581c0 71.605 49.201 132.228 117.292 148.482v-214.377h-16.693zM334.744 304.13v117.292h334.744v-117.292h-334.744zM820.166 258.883c-24.601 27.676-60.623 45.248-100.599 45.248h-16.693v214.377c68.091-16.254 117.292-76.877 117.292-148.482v-111.142z" />
<glyph unicode="&#xea04;" horiz-adv-x="1004" d="M66.773 822.94h-33.387v-33.387h-33.387v-33.387h33.387v-33.387h33.387v33.387h33.387v33.387h-33.387v33.387z" />
<glyph unicode="&#xea05;" horiz-adv-x="1004" d="M150.679 789.553h33.387v50.080h50.080v33.387h-50.080v50.519h-33.387v-50.080h-50.080v-33.387h50.080v-50.519z" />
<glyph unicode="&#xea06;" horiz-adv-x="1004" d="M217.452 638.874v33.387h33.387v33.387h-33.387v33.387h-33.387v-33.387h-33.387v-33.387h33.387v-33.387h33.387z" />
<glyph unicode="&#xea07;" horiz-adv-x="1004" d="M803.473 739.473h33.387v33.387h33.387v33.387h-33.387v33.387h-33.387v-33.387h-33.387v-33.387h33.387v-33.387z" />
<glyph unicode="&#xea08;" horiz-adv-x="1004" d="M1004.232 688.954h-50.080v50.519h-33.387v-50.080h-50.080v-33.387h50.080v-50.080h33.387v49.64h50.080v33.387z" />
<glyph unicode="&#xea09;" horiz-adv-x="1004" d="M769.647 588.795h33.387v33.387h33.387v33.387h-33.387v33.387h-33.387v-33.387h-33.387v-33.387h33.387v-33.387z" />
<glyph unicode="&#xea0a;" glyph-name="check-circle" d="M858.81 448v271.108l-240.922 240.892h-617.888v-1024h858.824v198.196h165.176v313.804h-165.19zM627.578 903.606l174.837-174.822h-174.837v174.822zM825.789-30.965h-792.784v957.945h561.538v-231.231h231.246v-247.749h-33.050v-33.035h-10.997l-58.531 43.898-46.006 92.13v111.72h-93.837l-38.348-95.989v-52.729l11.872-49.553h-174.006l-19.916-99.432 21.756-86.966-54.391-46.006v34.297h-264.311v-264.266h264.266v186.739l63.31 53.56 3.265-13.075 38.838-78.581h314.323l16.518 16.503h26.194v-33.020h33.050v-165.161zM578.041 516.103v44.344l27.693 69.231h38.348v-86.476l53.025-106.066 73.609-55.192h22.009v-181.678h-39.847l-16.532-16.518h-280.205l-27.693 55.311-31.67 126.783 13.134 65.655h189.306zM156.286 68.081h31.418l109.538 92.709v-125.729h-198.166v198.24h198.166v-29.191l-121.693-102.934h-1.632l-28.197 42.192-27.366-18.313zM990.95 167.172h-165.161v247.808h165.161v-247.749zM330.292 816.417l76.741 64.928-21.326 25.229-55.415-46.896v34.267h-264.266v-264.251h264.266v186.724zM297.242 831.733l-121.693-102.934h-1.632l-28.197 42.207-27.366-18.343 37.933-56.914h31.418l109.538 92.709v-125.744h-198.166v198.196h198.166v-29.177zM330.292 502.613l76.741 64.928-21.326 25.229-55.415-46.881v34.193h-264.266v-264.162h264.266v186.694zM297.242 517.914l-121.693-102.934h-1.632l-28.197 42.192-27.366-18.313 37.933-56.899h31.418l109.538 92.754v-125.744h-198.166v198.137h198.166v-29.191z" />
<glyph unicode="&#xea0b;" glyph-name="English-Lerning-Training" d="M512 960c-282.77 0-512-229.23-512-512s229.23-512 512-512c282.77 0 512 229.23 512 512v0c-0.581 282.535-229.464 511.418-511.944 512h-0.056zM876.8 710.4c-48.258-19.382-106.1-36.84-165.752-49.384l-7.048-1.24c-27.86 87.684-67.061 163.938-116.777 232.026l1.577-2.266c118.614-22.315 219.128-87.238 287.138-177.936l0.862-1.2zM659.2 308.736c-44.218 6.293-95.289 9.886-147.2 9.886s-102.981-3.593-152.977-10.544l5.777 0.658c-9.155 41.873-14.399 89.972-14.399 139.296s5.244 97.424 15.205 143.771l-0.806-4.475c44.242-7.087 95.248-11.136 147.2-11.136s102.958 4.049 152.721 11.849l-5.521-0.713c9.168-41.902 14.419-90.034 14.419-139.392s-5.251-97.49-15.226-143.868l0.807 4.476zM640 649.92c-38.443-5.256-82.871-8.256-128-8.256s-89.557 3-133.096 8.812l5.096-0.556c-14.024 22.432-22.341 49.682-22.341 78.873 0 83.064 67.336 150.4 150.4 150.4s150.4-67.336 150.4-150.4c0-29.271-8.362-56.589-22.827-79.696l0.368 0.63zM435.2 889.536c-48.14-65.823-87.34-142.077-113.635-224.109l-1.565-5.651c-66.7 13.784-124.542 31.242-180.132 53.173l7.332-2.549c68.862 91.923 169.378 156.868 285.118 178.747l2.882 0.453zM64 447.936c0.284 75.662 19.195 146.844 52.38 209.282l-1.18-2.434c52.919-23.562 115.016-43.574 179.546-56.936l6.054-1.048c-9.158-44.843-14.4-96.385-14.4-149.152s5.242-104.308 15.233-154.133l-0.833 4.981c-70.542-14.227-132.655-34.115-191.578-59.935l5.978 2.335c-32.005 60.087-50.914 131.355-51.2 207.014v0.090zM147.2 185.536c48.366 19.505 106.215 36.969 165.904 49.421l6.896 1.203c27.86-87.637 67.060-163.848 116.773-231.891l-1.573 2.259c-118.613 22.279-219.131 87.185-287.139 177.872l-0.861 1.2zM384 246.144c38.443 5.256 82.871 8.256 128 8.256s89.557-3 133.096-8.812l-5.096 0.556c14.012-22.425 22.321-49.663 22.321-78.841 0-83.064-67.336-150.4-150.4-150.4s-150.4 67.336-150.4 150.4c0 29.284 8.369 56.614 22.847 79.727l-0.368-0.63zM588.8 6.528c48.14 65.784 87.34 141.995 113.635 223.984l1.565 5.648c66.66-13.739 124.505-31.2 180.080-53.16l-7.28 2.536c-68.915-91.762-169.428-156.556-285.127-178.303l-2.873-0.449zM723.2 298.432c9.158 44.843 14.4 96.385 14.4 149.152s-5.242 104.308-15.233 154.133l0.833-4.981c71.331 15.561 133.354 35.518 192.658 60.639l-7.058-2.655c32.249-59.971 51.197-131.229 51.197-206.912s-18.948-146.941-52.36-209.287l1.163 2.375c-52.2 22.344-114.226 42.236-178.387 56.45l-7.213 1.342z" />
<glyph unicode="&#xea0c;" glyph-name="English" d="M550.4 290.56v0l-115.2 128.576v1.536c78.553 93.362 138.212 205.395 171.41 328.294l1.39 6.042h134.4v102.4h-326.4v102.592h-89.6v-102.4h-326.4v-101.952h518.4c-32.287-105.632-82.692-197.149-148.209-275.61l1.009 1.242c-40.339 49.893-76.555 106.145-106.4 166.125l-2.4 5.331h-89.6c34.667-89.373 80-166.542 135.646-234.99l-1.246 1.582-236.8-257.28 70.4-72.512 230.4 256 147.2-159.232zM812.8 550.464h-89.6l-211.2-614.4h96l51.2 153.6h217.6l51.2-153.6h96zM691.2 192.064l76.8 222.016 76.8-222.016h-153.6z" />
<glyph unicode="&#xea0d;" glyph-name="Log-Out" d="M866.987 396.595h-539.307c-26.978 1.025-48.46 23.143-48.46 50.278s21.482 49.253 48.366 50.276l0.093 0.003h539.307l-61.44 65.058c-9.458 8.922-15.346 21.54-15.346 35.533s5.888 26.61 15.322 35.51l0.024 0.022c7.254 9.063 18.315 14.818 30.72 14.818s23.466-5.755 30.66-14.74l0.060-0.078 143.36-150.869v-3.618s0-0.683 6.827-0.956v-12.151c6.827-1.365 6.827-2.731 6.827-4.164v-29.286c0-1.434 0-2.799-6.827-4.164v-12.151c-6.827 0-6.827-0.614-6.827-0.956v-3.686l-143.36-150.801c-6.473-8.31-16.165-13.85-27.171-14.737l-0.135-0.009c-0.72-0.045-1.562-0.070-2.41-0.070-12.711 0-24.083 5.732-31.671 14.753l-0.052 0.063c-9.458 8.922-15.346 21.54-15.346 35.533s5.888 26.61 15.322 35.51l0.024 0.022zM382.293 858.283c133.131-2.233 249.010-74.027 313.089-180.524l0.937-1.679c4.463-7.74 7.096-17.023 7.096-26.921 0-17.32-8.062-32.756-20.638-42.762l-0.111-0.086c-6.845-5.326-15.563-8.539-25.032-8.539-15.767 0-29.454 8.909-36.3 21.968l-0.108 0.225c-49.801 81.809-137.856 136.015-238.692 137.691l-0.241 0.003c-160.23-14.277-284.898-147.887-284.898-310.613s124.668-296.336 283.704-310.527l1.194-0.086c100.942 1.58 188.948 55.509 238.227 135.774l0.707 1.237c6.954 13.284 20.64 22.193 36.408 22.193 9.469 0 18.187-3.213 25.125-8.608l-0.092 0.069c12.703-10.091 20.777-25.537 20.777-42.868 0-9.917-2.643-19.217-7.264-27.233l0.141 0.264c-65.23-107.805-181.060-179.255-313.73-181.313l-0.296-0.004c-212.529 18.297-378.108 195.329-378.108 411.034s165.579 392.736 376.569 410.927l1.539 0.107z" />
<glyph unicode="&#xea0e;" glyph-name="Marketplace" d="M512 179.060c-0.649 0.071-1.402 0.111-2.165 0.111-11.317 0-20.556-8.896-21.106-20.077l-0.002-0.049v-1.583c0.579-11.233 9.827-20.121 21.152-20.121 0.747 0 1.485 0.039 2.212 0.114l-0.091-0.008c10.441 0.776 18.618 9.437 18.618 20.009 0 0.002 0 0.004 0 0.006v0 1.583c0 0.014 0 0.032 0 0.049 0 10.562-8.182 19.214-18.554 19.962l-0.065 0.004zM512 824.46c-2.161 0.057-4.706 0.089-7.259 0.089-160.561 0-291.201-128.109-295.279-287.688l-0.008-0.378c0.527-52.477 14.261-101.633 38.029-144.45l-0.792 1.555c26.829-42.842 62.902-77.545 105.596-102.002l1.459-0.77c8.975-5.014 16.65-11.102 23.214-18.228l0.059-0.064v-251.718c-0.528-3.326-0.83-7.161-0.83-11.067 0-38.087 28.699-69.471 65.651-73.707l0.342-0.032h139.636c37.292 4.271 65.987 35.654 65.987 73.738 0 3.889-0.299 7.709-0.876 11.437l0.053-0.415v251.764c6.634 7.158 14.307 13.229 22.805 18.004l0.468 0.242c43.205 26.537 78.986 60.952 106.28 101.549l0.774 1.223c22.975 41.262 36.709 90.417 37.235 142.736l0.001 0.159c-4.060 159.977-134.71 288.112-295.288 288.112-2.552 0-5.096-0.032-7.633-0.097l0.375 0.008zM605.091 20.806c0.751-2.816 1.182-6.049 1.182-9.382 0-16.088-10.040-29.832-24.196-35.306l-0.258-0.088h-139.636c-14.414 5.563-24.454 19.306-24.454 35.394 0 3.334 0.431 6.566 1.24 9.646l-0.059-0.264v22.249h186.182v-22.063zM605.091 82.851h-186.182v352.768c5.692 3.040 12.449 4.826 19.623 4.826 4.63 0 9.087-0.744 13.257-2.119l-0.299 0.085c15.73-2.146 29.035-11.021 37.112-23.577l0.125-0.207v-201.588c0.579-11.233 9.827-20.121 21.152-20.121 0.747 0 1.485 0.039 2.212 0.114l-0.091-0.008c10.441 0.776 18.618 9.437 18.618 20.009 0 0.002 0 0.004 0 0.006v0 201.542c11.133 11.403 25.345 19.753 41.293 23.706l0.598 0.125c3.871 1.289 8.328 2.033 12.958 2.033 7.174 0 13.932-1.786 19.852-4.937l-0.228 0.111v-352.768zM442.182 480.209l69.818 134.516 69.818-134.516c-10.070-0.306-19.635-1.986-28.669-4.858l0.742 0.204c-9.162-13.589-24.497-22.407-41.891-22.407s-32.729 8.818-41.777 22.228l-0.114 0.179c-8.292 2.669-17.857 4.348-27.769 4.651l-0.158 0.004zM646.982 324.887v125.673c-4.655 0.698-4.655 1.396-4.655 2.048v0l-111.709 215.878c-3.639 6.68-10.608 11.136-18.618 11.136s-14.979-4.457-18.563-11.026l-0.055-0.111-111.709-215.831c-4.655-1.396-4.655-2.793-4.655-4.236v-123.625c-75.129 42.028-125.195 120.911-125.672 211.528v0.068c7.137 138.415 121.105 247.944 260.655 247.944s253.518-109.528 260.628-247.309l0.026-0.634c-0.513-90.649-50.57-169.49-124.445-210.871l-1.227-0.632zM679.564 695.668c-4.387 3.651-10.080 5.866-16.291 5.866s-11.904-2.216-16.332-5.9l0.042 0.034c-2.198-4.103-3.489-8.976-3.489-14.15s1.291-10.047 3.568-14.314l-0.080 0.164c36.217-32.318 59.272-78.722 60.505-130.53l0.004-0.216c-0.828-19.816-4.172-38.537-9.725-56.281l0.416 1.544c-1.105-2.23-1.752-4.855-1.752-7.632 0-9.037 6.849-16.474 15.639-17.403l0.076-0.007c1.38-0.533 2.975-0.854 4.642-0.884h0.013c9.976 0.172 18.622 5.701 23.202 13.828l0.070 0.136c5.151 19.732 8.498 42.581 9.295 66.078l0.014 0.529c-1.656 62.565-28.071 118.655-69.76 159.083l-0.058 0.056zM619.055 735.511v0.605c-2.85 1.65-6.271 2.624-9.919 2.624-11.079 0-20.061-8.982-20.061-20.061 0-7.916 4.585-14.761 11.243-18.024l0.118-0.052v-0.559c2.618-0.903 5.756-1.681 8.982-2.192l0.327-0.043c0.977-0.209 2.099-0.329 3.25-0.329 7.116 0 13.159 4.588 15.335 10.967l0.034 0.114c9.309 9.728 4.655 21.83-9.309 26.95zM353.745 837.911l-32.582 58.601c-4.911 6.149-12.408 10.054-20.816 10.054-4.285 0-8.334-1.014-11.918-2.816l0.153 0.070c-4.869-3.764-7.974-9.605-7.974-16.172 0-4.148 1.239-8.007 3.367-11.226l-0.047 0.076 32.582-58.554c4.493-5.559 11.061-9.287 18.509-9.999l0.109-0.008c5.027 0 9.826 0.974 14.219 2.744l-0.256-0.091c5.778 2.808 9.69 8.632 9.69 15.37 0 4.727-1.925 9.004-5.034 12.090l-0.001 0.001zM218.764 725.039l-60.509 32.908c-2.943 1.721-6.479 2.737-10.253 2.737-7.476 0-14.021-3.988-17.623-9.952l-0.052-0.092c-3.054-3.078-4.941-7.317-4.941-11.997 0-6.701 3.869-12.499 9.496-15.281l0.1-0.045 60.509-32.908c4.134-1.691 8.931-2.681 13.956-2.7h0.007c0.17-0.007 0.369-0.012 0.569-0.012 6.306 0 11.635 4.18 13.369 9.92l0.026 0.099c3.11 3.087 5.035 7.365 5.035 12.091 0 6.738-3.912 12.563-9.589 15.326l-0.101 0.044zM730.764 903.82c-2.872 1.504-6.273 2.387-9.881 2.387-7.503 0-14.114-3.818-17.997-9.616l-0.049-0.078-32.582-58.601c-3.054-3.078-4.941-7.317-4.941-11.997 0-6.701 3.869-12.499 9.496-15.281l0.1-0.045c4.137-1.679 8.937-2.653 13.964-2.653v0c0.17-0.007 0.369-0.012 0.569-0.012 6.306 0 11.635 4.18 13.369 9.92l0.026 0.099 37.236 58.554c2.022 2.891 3.23 6.48 3.23 10.351 0 8.028-5.198 14.841-12.411 17.259l-0.128 0.037zM158.255 561.385h-65.164c-0.92 0.148-1.981 0.233-3.061 0.233-11.182 0-20.247-9.065-20.247-20.247s9.065-20.247 20.247-20.247c1.080 0 2.141 0.085 3.176 0.248l-0.115-0.015h65.164c11.092 0 20.084 8.992 20.084 20.084s-8.992 20.084-20.084 20.084v0zM512 959.907c-0.636 0.068-1.374 0.106-2.121 0.106-11.325 0-20.573-8.888-21.15-20.070l-0.002-0.051v-68.329c0.576-11.209 9.805-20.079 21.105-20.079 0.763 0 1.517 0.040 2.26 0.119l-0.092-0.008c10.436 0.752 18.618 9.403 18.618 19.966 0 0.001 0 0.002 0 0.002v0 68.329c0 0.029 0 0.064 0 0.098 0 10.572-8.177 19.234-18.552 20.005l-0.066 0.004zM893.673 750.452c-3.654 6.057-10.199 10.044-17.675 10.044-3.774 0-7.31-1.016-10.35-2.789l0.098 0.053-60.509-32.908c-6.608-3.836-10.981-10.879-10.981-18.943 0-3.024 0.615-5.904 1.726-8.522l-0.054 0.143c4.493-5.559 11.061-9.287 18.509-9.999l0.109-0.008c5.033 0.019 9.829 1.008 14.219 2.791l-0.256-0.092 60.509 32.908c4.892 3.763 8.014 9.618 8.014 16.203 0 4.174-1.254 8.055-3.407 11.287l0.047-0.075zM930.909 561.199h-65.164c-0.92 0.148-1.981 0.233-3.061 0.233-11.182 0-20.247-9.065-20.247-20.247s9.065-20.247 20.247-20.247c1.080 0 2.141 0.085 3.176 0.248l-0.115-0.015h65.164c0.503-0.044 1.089-0.070 1.68-0.070 11.182 0 20.247 9.065 20.247 20.247s-9.065 20.247-20.247 20.247c-0.591 0-1.177-0.025-1.755-0.075l0.075 0.005zM889.018 359.238l-55.855 30.348c-3.447 1.762-7.518 2.795-11.831 2.795-8.389 0-15.866-3.908-20.709-10.002l-0.042-0.054c-1.057-2.475-1.672-5.355-1.672-8.379 0-8.064 4.373-15.107 10.877-18.887l0.104-0.056 55.855-30.441c2.576-0.997 5.694-1.912 8.902-2.582l0.407-0.071c0.328-0.018 0.711-0.029 1.097-0.029 11.619 0 21.039 9.419 21.039 21.039 0 6.752-3.18 12.76-8.125 16.61l-0.047 0.035zM344.436 264.285c-3.425 1.724-7.464 2.733-11.739 2.733-8.424 0-15.932-3.919-20.801-10.033l-0.042-0.054-27.927-50.874c-2.081-3.143-3.319-7.002-3.319-11.15 0-6.567 3.105-12.409 7.927-16.137l0.047-0.035c4.12-1.708 8.904-2.7 13.92-2.7 0.015 0 0.031 0 0.046 0h-0.002c7.557 0.72 14.125 4.448 18.578 9.956l0.040 0.051 27.927 50.921c3.186 3.099 5.163 7.427 5.163 12.217 0 6.788-3.97 12.649-9.715 15.387l-0.103 0.044zM223.418 382.324c-5.151 5.956-12.719 9.703-21.161 9.703-4.137 0-8.063-0.899-11.595-2.513l0.174 0.071-55.855-30.348c-5.726-2.826-9.595-8.624-9.595-15.325 0-4.68 1.887-8.919 4.942-11.998l-0.001 0.001c3.611-6.048 10.121-10.035 17.563-10.035 0.371 0 0.74 0.010 1.106 0.030l-0.051-0.002c3.615 0.741 6.733 1.657 9.74 2.797l-0.431-0.143 55.855 30.441c6.707 3.811 11.157 10.908 11.157 19.043 0 3.181-0.68 6.203-1.904 8.929l0.055-0.138zM740.073 206.057l-32.582 50.874c-3.65 6.076-10.205 10.079-17.695 10.079-3.765 0-7.294-1.011-10.33-2.778l0.098 0.053c-5.726-2.826-9.595-8.624-9.595-15.325 0-4.68 1.887-8.919 4.942-11.998l-0.001 0.001 27.927-50.921c4.493-5.559 11.061-9.287 18.509-9.999l0.109-0.008c0.675-0.164 1.449-0.258 2.246-0.258 2.764 0 5.264 1.131 7.062 2.956l0.001 0.001c7.342 2.455 12.539 9.269 12.539 17.297 0 3.871-1.209 7.46-3.269 10.41l0.039-0.059z" />
<glyph unicode="&#xea0f;" glyph-name="My-Account" horiz-adv-x="1020" d="M510.024 385.14c152.707 7.778 273.579 133.489 273.579 287.43s-120.872 279.652-272.887 287.402l-0.692 0.028c-152.707-7.778-273.579-133.489-273.579-287.43s120.872-279.652 272.887-287.402l0.692-0.028zM510.024 884.963c2.415 0.098 5.249 0.155 8.097 0.155 117.143 0 212.106-94.963 212.106-212.106s-94.963-212.106-212.106-212.106c-117.133 0-212.090 94.948-212.106 212.077v0.002c-0.056 1.788-0.087 3.891-0.087 6.001 0 113.099 91.149 204.908 203.995 205.976l0.102 0.001zM38.252-64.383h943.544c20.9 0.553 37.699 17.352 38.251 38.2l0.001 0.052c0.065 2.535 0.103 5.521 0.103 8.515 0 191.87-153.19 347.961-343.935 352.637l-0.434 0.008h-331.515c-191.126-4.397-344.381-160.375-344.381-352.148 0-3.169 0.042-6.329 0.125-9.478l-0.010 0.465c-0.073-0.855-0.115-1.851-0.115-2.856 0-19.612 15.899-35.51 35.51-35.51 1.005 0 2.001 0.042 2.985 0.124l-0.129-0.009zM344.266 258.845h331.515c140.633-0.56 255.843-108.656 267.693-246.293l0.070-1.005h-867.040c12.217 138.503 127.25 246.425 267.674 247.297h0.088z" />
<glyph unicode="&#xea10;" glyph-name="Notification" horiz-adv-x="1020" d="M978.929 189.366c-88.375 80.082-176.751 192.93-176.751 474.848 0 161.443-130.876 292.319-292.319 292.319s-292.319-130.876-292.319-292.319v0c0-282.19-88.375-394.902-176.751-474.916-25.001-20.773-40.802-51.874-40.802-86.665 0-0.601 0.005-1.202 0.014-1.801l-0.001 0.090c-0.013-0.351-0.021-0.763-0.021-1.177 0-18.134 14.701-32.835 32.835-32.835 0.414 0 0.826 0.008 1.236 0.023l-0.059-0.002h312.713c17.801-75.132 83.91-130.316 163.056-131.203l0.098-0.001c0.605-0.008 1.319-0.013 2.034-0.013 77.476 0 141.79 56.35 154.195 130.301l0.127 0.916h319.511c0.351-0.013 0.763-0.021 1.177-0.021 18.134 0 32.835 14.701 32.835 32.835 0 0.414-0.008 0.826-0.023 1.236l0.002-0.059c0.012 0.604 0.018 1.317 0.018 2.031 0 34.715-15.809 65.738-40.619 86.262l-0.188 0.151zM509.859 3.437c-40.79 0.492-75.329 26.717-88.172 63.172l-0.203 0.663h176.751c-13.046-37.118-47.585-63.343-88.317-63.834l-0.059-0.001zM81.577 134.641v3.807c142.76 121.89 203.943 279.131 203.943 525.766 0 123.898 100.439 224.338 224.338 224.338s224.338-100.439 224.338-224.338v0c0-246.432 61.183-403.672 203.943-525.834v-3.739h-856.562z" />
<glyph unicode="&#xea11;" glyph-name="Proof-Reading" d="M819.2 764.723c-4.531 9.69-14.196 16.282-25.402 16.282-0.070 0-0.14 0-0.209-0.001h0.011c-0.701 0.058-1.518 0.091-2.342 0.091-12.968 0-24.027-8.171-28.31-19.645l-0.068-0.209-46.080-121.498c-2.355-3.969-3.746-8.75-3.746-13.855 0-12.188 7.93-22.523 18.912-26.128l0.194-0.055c2.766-0.769 6.232-1.485 9.766-1.992l0.474-0.056c0.495-0.028 1.073-0.044 1.656-0.044 13.234 0 24.534 8.286 28.993 19.953l0.071 0.213 25.6 58.573 66.56-122.88c-21.4 6.863-46.031 10.911-71.579 11.11l-0.101 0.001c-0.015 0-0.032 0-0.050 0-95.913 0-178.338-57.747-214.405-140.369l-0.586-1.506c-19.641 8.545-42.52 13.516-66.56 13.516s-46.92-4.971-67.666-13.941l1.106 0.426c-36.718 84.049-119.12 141.722-214.992 141.722-0.017 0-0.034 0-0.050 0h0.003c-0.499 0.004-1.089 0.006-1.68 0.006-25.054 0-49.123-4.22-71.533-11.989l1.533 0.462 66.56 123.443 20.48-58.624c5.845-11.477 17.285-19.36 30.629-20.067l0.091-0.004c0.758-0.14 1.631-0.22 2.522-0.22 2.86 0 5.528 0.826 7.777 2.252l-0.059-0.035c13.103 3.3 22.649 14.979 22.649 28.888 0 4.019-0.797 7.851-2.241 11.348l0.072-0.198-46.080 121.498c-5.701 11.543-17.252 19.418-30.675 19.762l-0.045 0.001c-0.203 0.004-0.443 0.007-0.683 0.007-12.523 0-23.545-6.423-29.954-16.153l-0.083-0.135-163.84-306.739v-0.717c-22.462-30.883-35.935-69.564-35.935-111.392 0-2.113 0.034-4.218 0.103-6.315l-0.008 0.306c0-127.246 103.154-230.4 230.4-230.4s230.4 103.154 230.4 230.4v0 21.146c2.009 0.794 3.694 1.62 5.305 2.557l-0.185-0.1c13.679 7.047 29.851 11.179 46.988 11.179 18.45 0 35.782-4.789 50.82-13.191l-0.529 0.271v-21.606c0-127.246 103.154-230.4 230.4-230.4s230.4 103.154 230.4 230.4v0c-0.172 47.444-15.502 91.275-41.395 126.939l0.435-0.629zM230.4 177.459c-86.983 3.534-156.16 74.905-156.16 162.434 0 89.779 72.781 162.56 162.56 162.56 89.771 0 162.546-72.767 162.56-162.535v-0.002c-2.308-90.219-75.992-162.475-166.554-162.475-0.846 0-1.691 0.006-2.534 0.019l0.127-0.001zM793.6 177.459c-1.924-0.082-4.181-0.128-6.45-0.128-89.779 0-162.56 72.781-162.56 162.56s72.781 162.56 162.56 162.56c2.268 0 4.526-0.046 6.771-0.138l-0.322 0.010c0.002 0 0.004 0 0.005 0 56.469 0 106.578-27.232 137.91-69.279l0.324-0.455v-7.014c16.154-21.196 25.881-48.049 25.881-77.174 0-2.985-0.102-5.946-0.303-8.88l0.022 0.396c0-0.094 0-0.205 0-0.316 0-89.553-72.597-162.15-162.15-162.15-0.594 0-1.188 0.003-1.78 0.010l0.090-0.001z" />
<glyph unicode="&#xea12;" glyph-name="Search" d="M612.305 618.425c66.999-17.652 117.691-72.137 129.549-139.974l0.153-1.054c1.312-7.618 7.862-13.343 15.752-13.359h0.002c0.947 0.001 1.874 0.081 2.776 0.234l-0.098-0.014c7.596 1.342 13.293 7.893 13.293 15.774 0 0.928-0.079 1.837-0.23 2.721l0.013-0.095c-14.193 81.426-74.092 145.83-151.818 166.396l-1.452 0.327c-1.454 0.48-3.127 0.758-4.866 0.758-8.84 0-16.006-7.166-16.006-16.006 0-7.752 5.511-14.217 12.829-15.691l0.102-0.017zM324.876 114.759c11.603 11.586 18.78 27.602 18.78 45.293 0 11.979-3.291 23.189-9.017 32.776l0.162-0.292 52.35 52.24c47.885-42.652 111.36-68.713 180.922-68.713 150.521 0 272.542 122.021 272.542 272.542s-122.021 272.542-272.542 272.542c-150.521 0-272.542-122.021-272.542-272.542 0-69.696 26.161-133.281 69.199-181.472l-0.233 0.266-52.366-52.271c-9.322 5.57-20.561 8.863-32.57 8.863-17.707 0-33.741-7.16-45.366-18.743l0.002 0.002-160.311-159.98c-11.623-11.583-18.815-27.606-18.815-45.308 0-35.324 28.636-63.961 63.961-63.961 0.074 0 0.148 0 0.221 0h-0.011c0.018 0 0.040 0 0.061 0 17.671 0 33.669 7.164 45.247 18.747v0l160.327 160.012zM568.068 688.010c132.376-0.224 239.6-107.587 239.6-239.994 0-132.545-107.449-239.994-239.994-239.994-132.539 0-239.985 107.44-239.994 239.977v0.001c0.278 132.575 107.783 239.947 240.382 240.010h0.006zM302.19 137.381v0l-160.295-159.996c-5.814-5.78-13.829-9.353-22.678-9.353s-16.863 3.573-22.679 9.354l0.002-0.002c-5.797 5.789-9.384 13.791-9.384 22.63s3.586 16.841 9.383 22.63l160.249 159.981c5.804 5.823 13.832 9.426 22.701 9.426 17.7 0 32.049-14.349 32.049-32.049 0-8.83-3.571-16.827-9.348-22.623l0.001 0.001zM968.736 737.603c-0.010 0.24-0.044 0.467-0.099 0.685l0.005-0.023c0 0.299-0.095 0.583-0.158 0.882s-0.11 0.52-0.173 0.772c-0.055 0.292-0.126 0.546-0.216 0.791l0.011-0.034c0 0.252-0.158 0.488-0.236 0.74s-0.205 0.488-0.284 0.725c-0.104 0.264-0.216 0.487-0.343 0.699l0.012-0.021c-0.079 0.236-0.221 0.488-0.331 0.725s-0.236 0.425-0.394 0.63-0.268 0.488-0.41 0.725-0.331 0.441-0.488 0.662-0.284 0.41-0.457 0.599-0.63 0.725-0.961 1.056c-0.026 0.042-0.052 0.078-0.080 0.112l0.002-0.002-208.392 207.951c-0.485 0.478-0.999 0.932-1.536 1.356l-0.039 0.030-0.441 0.347c-0.516 0.379-1.103 0.75-1.716 1.079l-0.080 0.039h-0.126c-0.493 0.282-1.088 0.572-1.703 0.827l-0.109 0.040-0.378 0.142c-0.564 0.208-1.256 0.404-1.966 0.55l-0.098 0.017h-0.079c-0.552 0.131-1.219 0.236-1.899 0.296l-0.054 0.004h-530.117c-26.523-0.009-48.027-21.485-48.081-47.997v-687.991c0-8.857 7.18-16.037 16.037-16.037s16.037 7.18 16.037 16.037v0 687.986c0 8.84 7.166 16.006 16.006 16.006 0.006 0 0.011 0 0.017 0h512.96v-159.996c0.054-26.522 21.567-48.002 48.096-48.002 0 0 0 0 0 0h96.098c0.15-0.005 0.326-0.008 0.502-0.008 8.84 0 16.006 7.166 16.006 16.006s-7.166 16.006-16.006 16.006c-0.177 0-0.352-0.003-0.528-0.009l0.026 0.001h-96.098c0 0 0 0 0 0-8.846 0-16.019 7.162-16.037 16.004v137.376l176.333-176.002v-745.377c-0.027-8.837-7.197-15.99-16.037-15.99 0 0 0 0 0 0h-689.278c-8.84 0-16.006-7.166-16.006-16.006s7.166-16.006 16.006-16.006h689.278c0.005 0 0.010 0 0.016 0 26.533 0 48.049 21.478 48.112 47.996v752c0 0.536 0 1.056-0.126 1.591zM712.342 448c0 8.84-7.166 16.006-16.006 16.006-0.006 0-0.011 0-0.017 0h-320.606c-8.835 0-15.998-7.163-15.998-15.998s7.163-15.998 15.998-15.998v0h320.607c0.005 0 0.010 0 0.016 0 8.834 0 15.997 7.157 16.006 15.989v0.001zM728.379 384.008h-304.601c-0.15 0.005-0.326 0.008-0.502 0.008-8.84 0-16.006-7.166-16.006-16.006s7.166-16.006 16.006-16.006c0.177 0 0.352 0.003 0.528 0.009l-0.026-0.001h304.601c0.15-0.005 0.326-0.008 0.502-0.008 8.84 0 16.006 7.166 16.006 16.006s-7.166 16.006-16.006 16.006c-0.177 0-0.352-0.003-0.528-0.009l0.026 0.001zM423.778 512.008h240.467c8.84 0 16.006 7.166 16.006 16.006s-7.166 16.006-16.006 16.006v0h-240.467c-8.84 0-16.006-7.166-16.006-16.006s7.166-16.006 16.006-16.006v0z" />
<glyph unicode="&#xea13;" glyph-name="View-More" d="M1007.36 496c-115.036 144.834-290.285 237.556-487.277 239.996l-0.403 0.004h-16c-99.282-1.034-192.721-25.033-275.578-66.92l3.578 1.64c-85.637-43.163-157.39-102.025-214.040-173.414l-1-1.306c-10.496-13.023-16.848-29.77-16.848-48s6.352-34.977 16.963-48.148l-0.115 0.148c57.82-72.507 129.529-131.328 211.41-173.042l3.63-1.678c79.279-40.247 172.718-64.246 271.662-65.277l0.338-0.003h16c99.28 0.955 192.734 24.963 275.559 66.915l-3.559-1.635c85.831 43.201 157.781 102.057 214.691 173.435l0.989 1.285c10.185 13.135 16.327 29.85 16.327 48s-6.142 34.865-16.461 48.18l0.134-0.18zM250.24 262.4c-80.124 40.136-147.213 95.151-200.023 161.971l-0.937 1.229c-4.794 6.115-7.687 13.92-7.687 22.4s2.894 16.285 7.747 22.48l-0.060-0.080c53.748 68.049 120.837 123.064 197.599 161.668l3.361 1.532c18.397 9.577 40.793 19.297 63.881 27.563l3.959 1.237c-59.396-52.678-96.642-129.19-96.642-214.4s37.246-161.721 96.345-214.141l0.297-0.259c-27.762 10.096-50.144 19.805-71.88 30.619l4.040-1.819zM512 201.6c-135.57 0.907-245.12 111.018-245.12 246.715 0 136.26 110.46 246.72 246.72 246.72s246.72-110.46 246.72-246.72c0-0.111 0-0.221 0-0.332v0.017c-1.088-136.315-111.844-246.4-248.313-246.4-0.003 0-0.005 0-0.008 0v0zM974.080 425.6c-53.613-68.195-120.738-123.243-197.613-161.684l-3.347-1.516c-18.446-9.616-40.648-19.133-63.587-27.072l-3.613-1.088c59.016 52.748 95.99 129.096 95.99 214.080s-36.973 161.332-95.712 213.836l-0.278 0.244c26.55-9.274 48.736-18.996 70.048-30.159l-2.848 1.359c80.222-39.957 147.347-95.005 200.018-161.958l0.942-1.242c5.077-6.010 8.163-13.845 8.163-22.4s-3.086-16.39-8.205-22.452l0.043 0.052zM512 553.6c-58.045-0.363-104.96-47.502-104.96-105.598 0-58.321 47.279-105.6 105.6-105.6s105.599 47.278 105.6 105.598v0c-0.145 58.353-47.483 105.601-105.856 105.601-0.135 0-0.27 0-0.405-0.001h0.021zM512 384c-35.070 0.362-63.36 28.876-63.36 63.997 0 35.346 28.654 64 64 64s63.998-28.652 64-63.997v0c-0.181-35.385-28.908-64.001-64.319-64.001-0.113 0-0.225 0-0.338 0.001h0.017z" />
<glyph unicode="&#xea14;" glyph-name="share" d="M811.375 302.14c-58.897 0-111.415-28.066-145.010-71.442l-281.302 157.13c6.591 18.924 10.206 39.336 10.206 60.385 0 21.262-3.615 41.462-10.419 60.598l281.090 156.917c33.382-43.588 86.113-71.867 145.223-71.867 100.784 0 183.070 82.073 183.070 183.070s-82.073 183.070-183.070 183.070-183.070-82.073-183.070-183.070c0-21.262 3.615-41.674 10.419-60.598l-280.877-156.917c-33.382 43.801-86.113 71.867-145.223 71.867-100.784 0-183.070-82.073-183.070-183.070s82.286-183.070 183.282-183.070c59.11 0 111.841 28.279 145.435 72.080l281.090-157.13c-6.804-19.136-10.631-39.761-10.631-61.023 0-100.784 82.073-183.070 183.070-183.070s183.070 82.073 183.070 183.070-82.286 183.070-183.282 183.070zM811.375 902.379c69.316 0 125.661-56.346 125.661-125.661s-56.346-125.661-125.661-125.661-125.661 56.346-125.661 125.661 56.558 125.661 125.661 125.661zM212.625 322.551c-69.316 0-125.661 56.346-125.661 125.661s56.346 125.661 125.661 125.661 125.661-56.346 125.661-125.661-56.558-125.661-125.661-125.661zM811.375-6.379c-69.316 0-125.661 56.346-125.661 125.661s56.346 125.661 125.661 125.661 125.661-56.346 125.661-125.661c0-69.316-56.346-125.661-125.661-125.661z" />
</font>
</defs>
</svg>
